<?xml version="1.0" encoding="utf-8" standalone="no"?>
<!DOCTYPE svg PUBLIC "-//W3C//DTD SVG 1.1//EN"
  "http://www.w3.org/Graphics/SVG/1.1/DTD/svg11.dtd">
<svg xmlns:xlink="http://www.w3.org/1999/xlink" width="460.8pt" height="345.6pt" viewBox="0 0 460.8 345.6" xmlns="http://www.w3.org/2000/svg" version="1.1">
 <metadata>
  <rdf:RDF xmlns:dc="http://purl.org/dc/elements/1.1/" xmlns:cc="http://creativecommons.org/ns#" xmlns:rdf="http://www.w3.org/1999/02/22-rdf-syntax-ns#">
   <cc:Work>
    <dc:type rdf:resource="http://purl.org/dc/dcmitype/StillImage"/>
    <dc:date>2023-06-08T17:05:33.811237</dc:date>
    <dc:format>image/svg+xml</dc:format>
    <dc:creator>
     <cc:Agent>
      <dc:title>Matplotlib v3.7.1, https://matplotlib.org/</dc:title>
     </cc:Agent>
    </dc:creator>
   </cc:Work>
  </rdf:RDF>
 </metadata>
 <defs>
  <style type="text/css">*{stroke-linejoin: round; stroke-linecap: butt}</style>
 </defs>
 <g id="figure_1">
  <g id="patch_1">
   <path d="M 0 345.6 
L 460.8 345.6 
L 460.8 0 
L 0 0 
z
" style="fill: #ffffff"/>
  </g>
  <g id="axes_1">
   <g id="patch_2">
    <path d="M 57.6 307.584 
L 414.72 307.584 
L 414.72 41.472 
L 57.6 41.472 
z
" style="fill: #ffffff"/>
   </g>
   <g id="matplotlib.axis_1">
    <g id="xtick_1">
     <g id="line2d_1">
      <defs>
       <path id="m4a54d6453d" d="M 0 0 
L 0 3.5 
" style="stroke: #000000; stroke-width: 0.8"/>
      </defs>
      <g>
       <use xlink:href="#m4a54d6453d" x="97.924842" y="307.584" style="stroke: #000000; stroke-width: 0.8"/>
      </g>
     </g>
     <g id="text_1">
      <!-- 08 11:30 -->
      <g transform="translate(75.563904 322.182437) scale(0.1 -0.1)">
       <defs>
        <path id="DejaVuSans-30" d="M 2034 4250 
Q 1547 4250 1301 3770 
Q 1056 3291 1056 2328 
Q 1056 1369 1301 889 
Q 1547 409 2034 409 
Q 2525 409 2770 889 
Q 3016 1369 3016 2328 
Q 3016 3291 2770 3770 
Q 2525 4250 2034 4250 
z
M 2034 4750 
Q 2819 4750 3233 4129 
Q 3647 3509 3647 2328 
Q 3647 1150 3233 529 
Q 2819 -91 2034 -91 
Q 1250 -91 836 529 
Q 422 1150 422 2328 
Q 422 3509 836 4129 
Q 1250 4750 2034 4750 
z
" transform="scale(0.015625)"/>
        <path id="DejaVuSans-38" d="M 2034 2216 
Q 1584 2216 1326 1975 
Q 1069 1734 1069 1313 
Q 1069 891 1326 650 
Q 1584 409 2034 409 
Q 2484 409 2743 651 
Q 3003 894 3003 1313 
Q 3003 1734 2745 1975 
Q 2488 2216 2034 2216 
z
M 1403 2484 
Q 997 2584 770 2862 
Q 544 3141 544 3541 
Q 544 4100 942 4425 
Q 1341 4750 2034 4750 
Q 2731 4750 3128 4425 
Q 3525 4100 3525 3541 
Q 3525 3141 3298 2862 
Q 3072 2584 2669 2484 
Q 3125 2378 3379 2068 
Q 3634 1759 3634 1313 
Q 3634 634 3220 271 
Q 2806 -91 2034 -91 
Q 1263 -91 848 271 
Q 434 634 434 1313 
Q 434 1759 690 2068 
Q 947 2378 1403 2484 
z
M 1172 3481 
Q 1172 3119 1398 2916 
Q 1625 2713 2034 2713 
Q 2441 2713 2670 2916 
Q 2900 3119 2900 3481 
Q 2900 3844 2670 4047 
Q 2441 4250 2034 4250 
Q 1625 4250 1398 4047 
Q 1172 3844 1172 3481 
z
" transform="scale(0.015625)"/>
        <path id="DejaVuSans-20" transform="scale(0.015625)"/>
        <path id="DejaVuSans-31" d="M 794 531 
L 1825 531 
L 1825 4091 
L 703 3866 
L 703 4441 
L 1819 4666 
L 2450 4666 
L 2450 531 
L 3481 531 
L 3481 0 
L 794 0 
L 794 531 
z
" transform="scale(0.015625)"/>
        <path id="DejaVuSans-3a" d="M 750 794 
L 1409 794 
L 1409 0 
L 750 0 
L 750 794 
z
M 750 3309 
L 1409 3309 
L 1409 2516 
L 750 2516 
L 750 3309 
z
" transform="scale(0.015625)"/>
        <path id="DejaVuSans-33" d="M 2597 2516 
Q 3050 2419 3304 2112 
Q 3559 1806 3559 1356 
Q 3559 666 3084 287 
Q 2609 -91 1734 -91 
Q 1441 -91 1130 -33 
Q 819 25 488 141 
L 488 750 
Q 750 597 1062 519 
Q 1375 441 1716 441 
Q 2309 441 2620 675 
Q 2931 909 2931 1356 
Q 2931 1769 2642 2001 
Q 2353 2234 1838 2234 
L 1294 2234 
L 1294 2753 
L 1863 2753 
Q 2328 2753 2575 2939 
Q 2822 3125 2822 3475 
Q 2822 3834 2567 4026 
Q 2313 4219 1838 4219 
Q 1578 4219 1281 4162 
Q 984 4106 628 3988 
L 628 4550 
Q 988 4650 1302 4700 
Q 1616 4750 1894 4750 
Q 2613 4750 3031 4423 
Q 3450 4097 3450 3541 
Q 3450 3153 3228 2886 
Q 3006 2619 2597 2516 
z
" transform="scale(0.015625)"/>
       </defs>
       <use xlink:href="#DejaVuSans-30"/>
       <use xlink:href="#DejaVuSans-38" x="63.623047"/>
       <use xlink:href="#DejaVuSans-20" x="127.246094"/>
       <use xlink:href="#DejaVuSans-31" x="159.033203"/>
       <use xlink:href="#DejaVuSans-31" x="222.65625"/>
       <use xlink:href="#DejaVuSans-3a" x="286.279297"/>
       <use xlink:href="#DejaVuSans-33" x="319.970703"/>
       <use xlink:href="#DejaVuSans-30" x="383.59375"/>
      </g>
     </g>
    </g>
    <g id="xtick_2">
     <g id="line2d_2">
      <g>
       <use xlink:href="#m4a54d6453d" x="140.234382" y="307.584" style="stroke: #000000; stroke-width: 0.8"/>
      </g>
     </g>
     <g id="text_2">
      <!-- 08 11:45 -->
      <g transform="translate(117.873445 322.182437) scale(0.1 -0.1)">
       <defs>
        <path id="DejaVuSans-34" d="M 2419 4116 
L 825 1625 
L 2419 1625 
L 2419 4116 
z
M 2253 4666 
L 3047 4666 
L 3047 1625 
L 3713 1625 
L 3713 1100 
L 3047 1100 
L 3047 0 
L 2419 0 
L 2419 1100 
L 313 1100 
L 313 1709 
L 2253 4666 
z
" transform="scale(0.015625)"/>
        <path id="DejaVuSans-35" d="M 691 4666 
L 3169 4666 
L 3169 4134 
L 1269 4134 
L 1269 2991 
Q 1406 3038 1543 3061 
Q 1681 3084 1819 3084 
Q 2600 3084 3056 2656 
Q 3513 2228 3513 1497 
Q 3513 744 3044 326 
Q 2575 -91 1722 -91 
Q 1428 -91 1123 -41 
Q 819 9 494 109 
L 494 744 
Q 775 591 1075 516 
Q 1375 441 1709 441 
Q 2250 441 2565 725 
Q 2881 1009 2881 1497 
Q 2881 1984 2565 2268 
Q 2250 2553 1709 2553 
Q 1456 2553 1204 2497 
Q 953 2441 691 2322 
L 691 4666 
z
" transform="scale(0.015625)"/>
       </defs>
       <use xlink:href="#DejaVuSans-30"/>
       <use xlink:href="#DejaVuSans-38" x="63.623047"/>
       <use xlink:href="#DejaVuSans-20" x="127.246094"/>
       <use xlink:href="#DejaVuSans-31" x="159.033203"/>
       <use xlink:href="#DejaVuSans-31" x="222.65625"/>
       <use xlink:href="#DejaVuSans-3a" x="286.279297"/>
       <use xlink:href="#DejaVuSans-34" x="319.970703"/>
       <use xlink:href="#DejaVuSans-35" x="383.59375"/>
      </g>
     </g>
    </g>
    <g id="xtick_3">
     <g id="line2d_3">
      <g>
       <use xlink:href="#m4a54d6453d" x="182.543923" y="307.584" style="stroke: #000000; stroke-width: 0.8"/>
      </g>
     </g>
     <g id="text_3">
      <!-- 08 12:00 -->
      <g transform="translate(160.182985 322.182437) scale(0.1 -0.1)">
       <defs>
        <path id="DejaVuSans-32" d="M 1228 531 
L 3431 531 
L 3431 0 
L 469 0 
L 469 531 
Q 828 903 1448 1529 
Q 2069 2156 2228 2338 
Q 2531 2678 2651 2914 
Q 2772 3150 2772 3378 
Q 2772 3750 2511 3984 
Q 2250 4219 1831 4219 
Q 1534 4219 1204 4116 
Q 875 4013 500 3803 
L 500 4441 
Q 881 4594 1212 4672 
Q 1544 4750 1819 4750 
Q 2544 4750 2975 4387 
Q 3406 4025 3406 3419 
Q 3406 3131 3298 2873 
Q 3191 2616 2906 2266 
Q 2828 2175 2409 1742 
Q 1991 1309 1228 531 
z
" transform="scale(0.015625)"/>
       </defs>
       <use xlink:href="#DejaVuSans-30"/>
       <use xlink:href="#DejaVuSans-38" x="63.623047"/>
       <use xlink:href="#DejaVuSans-20" x="127.246094"/>
       <use xlink:href="#DejaVuSans-31" x="159.033203"/>
       <use xlink:href="#DejaVuSans-32" x="222.65625"/>
       <use xlink:href="#DejaVuSans-3a" x="286.279297"/>
       <use xlink:href="#DejaVuSans-30" x="319.970703"/>
       <use xlink:href="#DejaVuSans-30" x="383.59375"/>
      </g>
     </g>
    </g>
    <g id="xtick_4">
     <g id="line2d_4">
      <g>
       <use xlink:href="#m4a54d6453d" x="224.853463" y="307.584" style="stroke: #000000; stroke-width: 0.8"/>
      </g>
     </g>
     <g id="text_4">
      <!-- 08 12:15 -->
      <g transform="translate(202.492526 322.182437) scale(0.1 -0.1)">
       <use xlink:href="#DejaVuSans-30"/>
       <use xlink:href="#DejaVuSans-38" x="63.623047"/>
       <use xlink:href="#DejaVuSans-20" x="127.246094"/>
       <use xlink:href="#DejaVuSans-31" x="159.033203"/>
       <use xlink:href="#DejaVuSans-32" x="222.65625"/>
       <use xlink:href="#DejaVuSans-3a" x="286.279297"/>
       <use xlink:href="#DejaVuSans-31" x="319.970703"/>
       <use xlink:href="#DejaVuSans-35" x="383.59375"/>
      </g>
     </g>
    </g>
    <g id="xtick_5">
     <g id="line2d_5">
      <g>
       <use xlink:href="#m4a54d6453d" x="267.163004" y="307.584" style="stroke: #000000; stroke-width: 0.8"/>
      </g>
     </g>
     <g id="text_5">
      <!-- 08 12:30 -->
      <g transform="translate(244.802066 322.182437) scale(0.1 -0.1)">
       <use xlink:href="#DejaVuSans-30"/>
       <use xlink:href="#DejaVuSans-38" x="63.623047"/>
       <use xlink:href="#DejaVuSans-20" x="127.246094"/>
       <use xlink:href="#DejaVuSans-31" x="159.033203"/>
       <use xlink:href="#DejaVuSans-32" x="222.65625"/>
       <use xlink:href="#DejaVuSans-3a" x="286.279297"/>
       <use xlink:href="#DejaVuSans-33" x="319.970703"/>
       <use xlink:href="#DejaVuSans-30" x="383.59375"/>
      </g>
     </g>
    </g>
    <g id="xtick_6">
     <g id="line2d_6">
      <g>
       <use xlink:href="#m4a54d6453d" x="309.472544" y="307.584" style="stroke: #000000; stroke-width: 0.8"/>
      </g>
     </g>
     <g id="text_6">
      <!-- 08 12:45 -->
      <g transform="translate(287.111607 322.182437) scale(0.1 -0.1)">
       <use xlink:href="#DejaVuSans-30"/>
       <use xlink:href="#DejaVuSans-38" x="63.623047"/>
       <use xlink:href="#DejaVuSans-20" x="127.246094"/>
       <use xlink:href="#DejaVuSans-31" x="159.033203"/>
       <use xlink:href="#DejaVuSans-32" x="222.65625"/>
       <use xlink:href="#DejaVuSans-3a" x="286.279297"/>
       <use xlink:href="#DejaVuSans-34" x="319.970703"/>
       <use xlink:href="#DejaVuSans-35" x="383.59375"/>
      </g>
     </g>
    </g>
    <g id="xtick_7">
     <g id="line2d_7">
      <g>
       <use xlink:href="#m4a54d6453d" x="351.782085" y="307.584" style="stroke: #000000; stroke-width: 0.8"/>
      </g>
     </g>
     <g id="text_7">
      <!-- 08 13:00 -->
      <g transform="translate(329.421147 322.182437) scale(0.1 -0.1)">
       <use xlink:href="#DejaVuSans-30"/>
       <use xlink:href="#DejaVuSans-38" x="63.623047"/>
       <use xlink:href="#DejaVuSans-20" x="127.246094"/>
       <use xlink:href="#DejaVuSans-31" x="159.033203"/>
       <use xlink:href="#DejaVuSans-33" x="222.65625"/>
       <use xlink:href="#DejaVuSans-3a" x="286.279297"/>
       <use xlink:href="#DejaVuSans-30" x="319.970703"/>
       <use xlink:href="#DejaVuSans-30" x="383.59375"/>
      </g>
     </g>
    </g>
    <g id="xtick_8">
     <g id="line2d_8">
      <g>
       <use xlink:href="#m4a54d6453d" x="394.091625" y="307.584" style="stroke: #000000; stroke-width: 0.8"/>
      </g>
     </g>
     <g id="text_8">
      <!-- 08 13:15 -->
      <g transform="translate(371.730687 322.182437) scale(0.1 -0.1)">
       <use xlink:href="#DejaVuSans-30"/>
       <use xlink:href="#DejaVuSans-38" x="63.623047"/>
       <use xlink:href="#DejaVuSans-20" x="127.246094"/>
       <use xlink:href="#DejaVuSans-31" x="159.033203"/>
       <use xlink:href="#DejaVuSans-33" x="222.65625"/>
       <use xlink:href="#DejaVuSans-3a" x="286.279297"/>
       <use xlink:href="#DejaVuSans-31" x="319.970703"/>
       <use xlink:href="#DejaVuSans-35" x="383.59375"/>
      </g>
     </g>
    </g>
    <g id="text_9">
     <!-- Time -->
     <g transform="translate(223.926406 335.860562) scale(0.1 -0.1)">
      <defs>
       <path id="DejaVuSans-54" d="M -19 4666 
L 3928 4666 
L 3928 4134 
L 2272 4134 
L 2272 0 
L 1638 0 
L 1638 4134 
L -19 4134 
L -19 4666 
z
" transform="scale(0.015625)"/>
       <path id="DejaVuSans-69" d="M 603 3500 
L 1178 3500 
L 1178 0 
L 603 0 
L 603 3500 
z
M 603 4863 
L 1178 4863 
L 1178 4134 
L 603 4134 
L 603 4863 
z
" transform="scale(0.015625)"/>
       <path id="DejaVuSans-6d" d="M 3328 2828 
Q 3544 3216 3844 3400 
Q 4144 3584 4550 3584 
Q 5097 3584 5394 3201 
Q 5691 2819 5691 2113 
L 5691 0 
L 5113 0 
L 5113 2094 
Q 5113 2597 4934 2840 
Q 4756 3084 4391 3084 
Q 3944 3084 3684 2787 
Q 3425 2491 3425 1978 
L 3425 0 
L 2847 0 
L 2847 2094 
Q 2847 2600 2669 2842 
Q 2491 3084 2119 3084 
Q 1678 3084 1418 2786 
Q 1159 2488 1159 1978 
L 1159 0 
L 581 0 
L 581 3500 
L 1159 3500 
L 1159 2956 
Q 1356 3278 1631 3431 
Q 1906 3584 2284 3584 
Q 2666 3584 2933 3390 
Q 3200 3197 3328 2828 
z
" transform="scale(0.015625)"/>
       <path id="DejaVuSans-65" d="M 3597 1894 
L 3597 1613 
L 953 1613 
Q 991 1019 1311 708 
Q 1631 397 2203 397 
Q 2534 397 2845 478 
Q 3156 559 3463 722 
L 3463 178 
Q 3153 47 2828 -22 
Q 2503 -91 2169 -91 
Q 1331 -91 842 396 
Q 353 884 353 1716 
Q 353 2575 817 3079 
Q 1281 3584 2069 3584 
Q 2775 3584 3186 3129 
Q 3597 2675 3597 1894 
z
M 3022 2063 
Q 3016 2534 2758 2815 
Q 2500 3097 2075 3097 
Q 1594 3097 1305 2825 
Q 1016 2553 972 2059 
L 3022 2063 
z
" transform="scale(0.015625)"/>
      </defs>
      <use xlink:href="#DejaVuSans-54"/>
      <use xlink:href="#DejaVuSans-69" x="57.958984"/>
      <use xlink:href="#DejaVuSans-6d" x="85.742188"/>
      <use xlink:href="#DejaVuSans-65" x="183.154297"/>
     </g>
    </g>
   </g>
   <g id="matplotlib.axis_2">
    <g id="ytick_1">
     <g id="line2d_9">
      <defs>
       <path id="m865ecbfd6e" d="M 0 0 
L -3.5 0 
" style="stroke: #000000; stroke-width: 0.8"/>
      </defs>
      <g>
       <use xlink:href="#m865ecbfd6e" x="57.6" y="295.488" style="stroke: #000000; stroke-width: 0.8"/>
      </g>
     </g>
     <g id="text_10">
      <!-- 0 -->
      <g transform="translate(44.2375 299.287219) scale(0.1 -0.1)">
       <use xlink:href="#DejaVuSans-30"/>
      </g>
     </g>
    </g>
    <g id="ytick_2">
     <g id="line2d_10">
      <g>
       <use xlink:href="#m865ecbfd6e" x="57.6" y="237.815222" style="stroke: #000000; stroke-width: 0.8"/>
      </g>
     </g>
     <g id="text_11">
      <!-- 100 -->
      <g transform="translate(31.5125 241.614441) scale(0.1 -0.1)">
       <use xlink:href="#DejaVuSans-31"/>
       <use xlink:href="#DejaVuSans-30" x="63.623047"/>
       <use xlink:href="#DejaVuSans-30" x="127.246094"/>
      </g>
     </g>
    </g>
    <g id="ytick_3">
     <g id="line2d_11">
      <g>
       <use xlink:href="#m865ecbfd6e" x="57.6" y="180.142445" style="stroke: #000000; stroke-width: 0.8"/>
      </g>
     </g>
     <g id="text_12">
      <!-- 200 -->
      <g transform="translate(31.5125 183.941664) scale(0.1 -0.1)">
       <use xlink:href="#DejaVuSans-32"/>
       <use xlink:href="#DejaVuSans-30" x="63.623047"/>
       <use xlink:href="#DejaVuSans-30" x="127.246094"/>
      </g>
     </g>
    </g>
    <g id="ytick_4">
     <g id="line2d_12">
      <g>
       <use xlink:href="#m865ecbfd6e" x="57.6" y="122.469667" style="stroke: #000000; stroke-width: 0.8"/>
      </g>
     </g>
     <g id="text_13">
      <!-- 300 -->
      <g transform="translate(31.5125 126.268886) scale(0.1 -0.1)">
       <use xlink:href="#DejaVuSans-33"/>
       <use xlink:href="#DejaVuSans-30" x="63.623047"/>
       <use xlink:href="#DejaVuSans-30" x="127.246094"/>
      </g>
     </g>
    </g>
    <g id="ytick_5">
     <g id="line2d_13">
      <g>
       <use xlink:href="#m865ecbfd6e" x="57.6" y="64.79689" style="stroke: #000000; stroke-width: 0.8"/>
      </g>
     </g>
     <g id="text_14">
      <!-- 400 -->
      <g transform="translate(31.5125 68.596109) scale(0.1 -0.1)">
       <use xlink:href="#DejaVuSans-34"/>
       <use xlink:href="#DejaVuSans-30" x="63.623047"/>
       <use xlink:href="#DejaVuSans-30" x="127.246094"/>
      </g>
     </g>
    </g>
    <g id="text_15">
     <!-- Sensor Data -->
     <g transform="translate(25.432812 205.194406) rotate(-90) scale(0.1 -0.1)">
      <defs>
       <path id="DejaVuSans-53" d="M 3425 4513 
L 3425 3897 
Q 3066 4069 2747 4153 
Q 2428 4238 2131 4238 
Q 1616 4238 1336 4038 
Q 1056 3838 1056 3469 
Q 1056 3159 1242 3001 
Q 1428 2844 1947 2747 
L 2328 2669 
Q 3034 2534 3370 2195 
Q 3706 1856 3706 1288 
Q 3706 609 3251 259 
Q 2797 -91 1919 -91 
Q 1588 -91 1214 -16 
Q 841 59 441 206 
L 441 856 
Q 825 641 1194 531 
Q 1563 422 1919 422 
Q 2459 422 2753 634 
Q 3047 847 3047 1241 
Q 3047 1584 2836 1778 
Q 2625 1972 2144 2069 
L 1759 2144 
Q 1053 2284 737 2584 
Q 422 2884 422 3419 
Q 422 4038 858 4394 
Q 1294 4750 2059 4750 
Q 2388 4750 2728 4690 
Q 3069 4631 3425 4513 
z
" transform="scale(0.015625)"/>
       <path id="DejaVuSans-6e" d="M 3513 2113 
L 3513 0 
L 2938 0 
L 2938 2094 
Q 2938 2591 2744 2837 
Q 2550 3084 2163 3084 
Q 1697 3084 1428 2787 
Q 1159 2491 1159 1978 
L 1159 0 
L 581 0 
L 581 3500 
L 1159 3500 
L 1159 2956 
Q 1366 3272 1645 3428 
Q 1925 3584 2291 3584 
Q 2894 3584 3203 3211 
Q 3513 2838 3513 2113 
z
" transform="scale(0.015625)"/>
       <path id="DejaVuSans-73" d="M 2834 3397 
L 2834 2853 
Q 2591 2978 2328 3040 
Q 2066 3103 1784 3103 
Q 1356 3103 1142 2972 
Q 928 2841 928 2578 
Q 928 2378 1081 2264 
Q 1234 2150 1697 2047 
L 1894 2003 
Q 2506 1872 2764 1633 
Q 3022 1394 3022 966 
Q 3022 478 2636 193 
Q 2250 -91 1575 -91 
Q 1294 -91 989 -36 
Q 684 19 347 128 
L 347 722 
Q 666 556 975 473 
Q 1284 391 1588 391 
Q 1994 391 2212 530 
Q 2431 669 2431 922 
Q 2431 1156 2273 1281 
Q 2116 1406 1581 1522 
L 1381 1569 
Q 847 1681 609 1914 
Q 372 2147 372 2553 
Q 372 3047 722 3315 
Q 1072 3584 1716 3584 
Q 2034 3584 2315 3537 
Q 2597 3491 2834 3397 
z
" transform="scale(0.015625)"/>
       <path id="DejaVuSans-6f" d="M 1959 3097 
Q 1497 3097 1228 2736 
Q 959 2375 959 1747 
Q 959 1119 1226 758 
Q 1494 397 1959 397 
Q 2419 397 2687 759 
Q 2956 1122 2956 1747 
Q 2956 2369 2687 2733 
Q 2419 3097 1959 3097 
z
M 1959 3584 
Q 2709 3584 3137 3096 
Q 3566 2609 3566 1747 
Q 3566 888 3137 398 
Q 2709 -91 1959 -91 
Q 1206 -91 779 398 
Q 353 888 353 1747 
Q 353 2609 779 3096 
Q 1206 3584 1959 3584 
z
" transform="scale(0.015625)"/>
       <path id="DejaVuSans-72" d="M 2631 2963 
Q 2534 3019 2420 3045 
Q 2306 3072 2169 3072 
Q 1681 3072 1420 2755 
Q 1159 2438 1159 1844 
L 1159 0 
L 581 0 
L 581 3500 
L 1159 3500 
L 1159 2956 
Q 1341 3275 1631 3429 
Q 1922 3584 2338 3584 
Q 2397 3584 2469 3576 
Q 2541 3569 2628 3553 
L 2631 2963 
z
" transform="scale(0.015625)"/>
       <path id="DejaVuSans-44" d="M 1259 4147 
L 1259 519 
L 2022 519 
Q 2988 519 3436 956 
Q 3884 1394 3884 2338 
Q 3884 3275 3436 3711 
Q 2988 4147 2022 4147 
L 1259 4147 
z
M 628 4666 
L 1925 4666 
Q 3281 4666 3915 4102 
Q 4550 3538 4550 2338 
Q 4550 1131 3912 565 
Q 3275 0 1925 0 
L 628 0 
L 628 4666 
z
" transform="scale(0.015625)"/>
       <path id="DejaVuSans-61" d="M 2194 1759 
Q 1497 1759 1228 1600 
Q 959 1441 959 1056 
Q 959 750 1161 570 
Q 1363 391 1709 391 
Q 2188 391 2477 730 
Q 2766 1069 2766 1631 
L 2766 1759 
L 2194 1759 
z
M 3341 1997 
L 3341 0 
L 2766 0 
L 2766 531 
Q 2569 213 2275 61 
Q 1981 -91 1556 -91 
Q 1019 -91 701 211 
Q 384 513 384 1019 
Q 384 1609 779 1909 
Q 1175 2209 1959 2209 
L 2766 2209 
L 2766 2266 
Q 2766 2663 2505 2880 
Q 2244 3097 1772 3097 
Q 1472 3097 1187 3025 
Q 903 2953 641 2809 
L 641 3341 
Q 956 3463 1253 3523 
Q 1550 3584 1831 3584 
Q 2591 3584 2966 3190 
Q 3341 2797 3341 1997 
z
" transform="scale(0.015625)"/>
       <path id="DejaVuSans-74" d="M 1172 4494 
L 1172 3500 
L 2356 3500 
L 2356 3053 
L 1172 3053 
L 1172 1153 
Q 1172 725 1289 603 
Q 1406 481 1766 481 
L 2356 481 
L 2356 0 
L 1766 0 
Q 1100 0 847 248 
Q 594 497 594 1153 
L 594 3053 
L 172 3053 
L 172 3500 
L 594 3500 
L 594 4494 
L 1172 4494 
z
" transform="scale(0.015625)"/>
      </defs>
      <use xlink:href="#DejaVuSans-53"/>
      <use xlink:href="#DejaVuSans-65" x="63.476562"/>
      <use xlink:href="#DejaVuSans-6e" x="125"/>
      <use xlink:href="#DejaVuSans-73" x="188.378906"/>
      <use xlink:href="#DejaVuSans-6f" x="240.478516"/>
      <use xlink:href="#DejaVuSans-72" x="301.660156"/>
      <use xlink:href="#DejaVuSans-20" x="342.773438"/>
      <use xlink:href="#DejaVuSans-44" x="374.560547"/>
      <use xlink:href="#DejaVuSans-61" x="451.5625"/>
      <use xlink:href="#DejaVuSans-74" x="512.841797"/>
      <use xlink:href="#DejaVuSans-61" x="552.050781"/>
     </g>
    </g>
   </g>
   <g id="line2d_14">
    <path d="M 73.832727 266.651611 
L 75.243034 266.651611 
L 75.525102 267.90311 
L 75.807161 268.56058 
L 76.371285 271.870998 
L 76.65335 274.506644 
L 76.794382 274.679662 
L 76.935416 274.581618 
L 77.076445 274.108701 
L 77.640571 263.635325 
L 77.922629 264.419675 
L 78.90986 278.226538 
L 79.191914 277.228799 
L 79.473976 277.52293 
L 79.897068 272.441958 
L 80.461197 277.753621 
L 80.74326 280.481543 
L 80.884289 281.473515 
L 81.02532 281.560024 
L 81.307385 282.332839 
L 81.589446 282.061777 
L 81.87151 280.694933 
L 82.012543 281.265893 
L 82.15357 279.639521 
L 82.2946 279.870212 
L 82.435633 278.013148 
L 82.576661 278.082356 
L 82.858727 278.993586 
L 83.140789 277.413352 
L 83.986977 264.840686 
L 84.410076 271.461521 
L 84.551105 270.786749 
L 84.833164 267.309081 
L 84.974199 268.093431 
L 85.115228 266.893837 
L 85.397292 269.754407 
L 85.679354 274.241349 
L 85.820385 274.149072 
L 86.102447 274.673895 
L 86.243486 274.581618 
L 86.666575 275.210251 
L 86.948638 272.563071 
L 87.089668 269.962029 
L 87.2307 270.111978 
L 87.653792 266.651611 
L 87.794865 266.651611 
L 87.935903 266.311342 
L 88.076937 266.651611 
L 88.500031 270.798284 
L 88.641061 272.361216 
L 88.923125 268.006921 
L 89.346214 266.305575 
L 89.487243 262.724095 
L 89.628273 262.729862 
L 89.910338 267.245641 
L 90.192402 270.544524 
L 90.474466 266.651611 
L 90.756527 266.172927 
L 91.179623 269.402603 
L 92.30787 262.966321 
L 92.448904 262.972088 
L 93.295093 275.602426 
L 93.577153 276.778951 
L 93.859215 276.773184 
L 94.000245 275.815816 
L 94.423341 276.836624 
L 94.846436 273.128264 
L 94.987466 273.122497 
L 95.128496 272.453493 
L 95.269528 272.747624 
L 95.551591 270.515687 
L 95.692622 270.463782 
L 95.833655 269.927425 
L 95.974684 270.083141 
L 96.115716 268.17994 
L 96.256747 268.099198 
L 96.397779 267.245641 
L 97.102939 265.273232 
L 97.243971 263.571885 
L 97.52603 269.483345 
L 98.090158 287.194655 
L 98.37222 295.488 
L 102.603154 295.488 
L 102.74419 295.286145 
L 102.885216 293.659773 
L 103.308313 286.427607 
L 103.590375 283.434389 
L 103.731408 281.871457 
L 103.872438 281.715741 
L 104.295536 277.223031 
L 104.436563 276.980806 
L 104.718626 273.43393 
L 105.423784 262.210807 
L 105.564817 262.153135 
L 105.846882 265.498156 
L 105.987911 265.72308 
L 106.269973 266.657379 
L 107.116158 266.582404 
L 107.257193 266.317109 
L 107.398221 266.651611 
L 107.539257 265.890331 
L 107.680286 265.965305 
L 107.821311 265.371276 
L 107.962345 265.544294 
L 108.385438 265.688476 
L 108.526474 266.386316 
L 108.667505 265.469319 
L 108.949569 266.213298 
L 109.090597 265.861494 
L 109.231626 266.455524 
L 109.513691 265.867261 
L 109.654725 266.051814 
L 109.795757 266.432455 
L 109.93679 266.282505 
L 110.077817 266.651611 
L 110.218849 266.005676 
L 110.500907 266.651611 
L 110.641943 266.172927 
L 110.782971 266.097953 
L 110.924007 266.651611 
L 111.065037 265.919167 
L 111.20607 266.651611 
L 111.488129 266.651611 
L 111.629163 266.253669 
L 111.911222 266.651611 
L 112.052257 266.651611 
L 112.193286 265.746149 
L 112.334317 265.896098 
L 112.616382 265.561596 
L 112.757413 265.844192 
L 112.898445 265.480854 
L 113.180501 265.746149 
L 113.321535 265.653872 
L 113.462569 265.705778 
L 113.744634 264.713806 
L 114.167769 264.431209 
L 114.308802 264.212053 
L 114.449832 263.168175 
L 114.731893 263.791041 
L 114.872924 263.49691 
L 115.154994 264.546555 
L 115.296021 264.379304 
L 115.437053 264.477348 
L 115.57809 264.073638 
L 115.86015 265.111748 
L 116.001172 265.042541 
L 116.424274 265.965305 
L 116.706329 267.955016 
L 116.847363 268.745133 
L 116.988397 268.197242 
L 117.270459 272.211267 
L 117.552522 274.823844 
L 117.975616 276.577096 
L 118.257677 275.475546 
L 118.398712 273.739596 
L 118.539739 273.491603 
L 118.680772 273.531974 
L 118.96284 272.620744 
L 119.103869 273.439697 
L 119.244894 273.209006 
L 119.526959 274.385531 
L 120.23212 282.598134 
L 120.373148 281.819552 
L 120.514177 282.217494 
L 120.937273 279.253113 
L 121.64243 261.939745 
L 121.783461 260.567133 
L 121.924493 260.670944 
L 122.065524 260.970843 
L 122.488619 262.256946 
L 122.62965 263.721834 
L 123.193775 273.393559 
L 123.616869 277.026944 
L 124.039963 275.562055 
L 124.463054 271.697979 
L 125.02718 265.503923 
L 125.450275 257.504709 
L 125.87337 250.139895 
L 126.437497 243.853562 
L 126.860589 243.830493 
L 127.142651 244.908974 
L 127.424716 246.598786 
L 127.565744 246.345026 
L 128.129872 243.98621 
L 128.270902 244.222668 
L 128.411933 243.173023 
L 128.552964 243.299904 
L 128.693994 244.164995 
L 129.258119 238.801427 
L 129.39915 238.622641 
L 129.681218 235.416035 
L 129.963278 238.824496 
L 130.104309 239.695355 
L 130.809463 248.080977 
L 131.091529 248.842258 
L 131.232559 250.070688 
L 131.373588 250.220637 
L 131.655651 251.097263 
L 132.078747 256.184002 
L 132.501841 257.98916 
L 132.783901 258.358266 
L 132.924935 258.225618 
L 133.348029 255.676482 
L 133.771123 251.95082 
L 133.912151 252.112304 
L 134.053186 251.489438 
L 134.194215 251.720129 
L 134.335247 251.547111 
L 134.617312 250.670485 
L 134.758341 248.680774 
L 134.899374 248.478919 
L 135.181438 246.408466 
L 135.604531 240.693094 
L 135.745559 241.431306 
L 136.027624 240.358592 
L 136.309687 243.340275 
L 136.732781 249.165225 
L 137.43793 255.572671 
L 137.578968 255.670714 
L 137.72 255.936009 
L 138.002059 253.952066 
L 138.566185 246.391164 
L 138.707216 246.345026 
L 138.848246 246.425768 
L 139.130312 245.958619 
L 139.412375 246.546881 
L 139.55341 245.174269 
L 139.694436 245.099294 
L 139.835472 246.327724 
L 139.976497 246.200844 
L 140.11753 246.258517 
L 140.258565 245.877877 
L 140.399596 246.241215 
L 140.681655 245.837506 
L 140.963714 247.931028 
L 141.386854 251.996958 
L 141.527887 251.916217 
L 141.668915 253.300363 
L 141.809947 253.225389 
L 142.233048 255.538067 
L 142.656137 254.742183 
L 142.797169 255.589972 
L 142.938202 254.736415 
L 143.079235 254.649906 
L 143.643361 243.830493 
L 143.784387 243.663242 
L 144.207481 249.274803 
L 144.348518 249.188294 
L 144.630576 249.286338 
L 144.771605 249.222898 
L 144.91264 248.813421 
L 145.053671 249.517029 
L 145.194704 249.470891 
L 145.33573 248.363573 
L 145.476762 248.253995 
L 145.617798 247.752242 
L 145.758832 246.794874 
L 145.899857 246.881383 
L 146.463985 245.1512 
L 146.605021 245.635651 
L 147.028106 251.425998 
L 147.31017 254.93827 
L 147.451199 255.336212 
L 147.592239 256.35702 
L 147.733266 255.872569 
L 148.43842 250.970383 
L 148.861517 249.297872 
L 149.284609 244.764792 
L 149.566672 248.64617 
L 149.707709 249.528564 
L 149.848737 249.470891 
L 149.989766 249.615073 
L 150.130797 249.274803 
L 150.271833 248.253995 
L 151.259048 243.109583 
L 151.54111 245.105062 
L 151.823175 248.559661 
L 151.964205 249.067181 
L 152.105237 250.157197 
L 152.246266 250.272542 
L 152.528329 251.339489 
L 152.669364 250.993452 
L 153.797613 256.097493 
L 154.079673 255.428489 
L 154.784831 248.357806 
L 155.066894 247.561922 
L 155.207921 247.233187 
L 155.772049 242.538623 
L 155.913084 242.013801 
L 156.336176 244.211133 
L 156.759269 248.340504 
L 156.9003 247.700337 
L 157.041328 247.659966 
L 157.323391 246.927521 
L 157.464426 246.016291 
L 157.605458 246.345026 
L 157.746486 246.102801 
L 157.88752 246.806408 
L 158.16958 248.715377 
L 158.310609 249.205596 
L 158.451646 249.292105 
L 158.592677 250.382121 
L 158.733706 250.220637 
L 158.874738 251.068427 
L 159.01577 250.53207 
L 159.297832 247.394671 
L 159.579895 245.970153 
L 159.720923 246.160473 
L 159.86196 245.376124 
L 160.002992 245.918248 
L 160.144017 245.65872 
L 160.285048 246.858314 
L 160.426083 246.143172 
L 160.56711 246.137404 
L 160.708144 245.877877 
L 160.849175 245.197338 
L 161.413304 238.818729 
L 161.695367 238.190096 
L 161.836397 238.230466 
L 162.259488 240.15097 
L 162.682579 245.162734 
L 163.246708 251.996958 
L 163.669802 254.817157 
L 163.951865 253.790582 
L 164.092896 252.337228 
L 164.233925 252.043097 
L 164.374958 252.285322 
L 164.515985 251.783569 
L 164.65702 252.14114 
L 164.939081 251.662456 
L 165.080114 250.376353 
L 165.221146 250.335982 
L 165.644247 246.420001 
L 165.785273 247.429274 
L 165.926298 247.29086 
L 166.208361 246.794874 
L 166.349398 247.140911 
L 166.63146 246.154706 
L 166.772491 246.154706 
L 166.913522 245.727928 
L 167.195583 243.2653 
L 167.336611 243.478689 
L 168.605897 235.439104 
L 168.746927 235.323758 
L 168.887962 236.096574 
L 169.029039 236.067737 
L 169.170066 235.485242 
L 169.452128 231.990272 
L 169.593167 231.892228 
L 169.734189 232.809225 
L 170.016252 231.661537 
L 170.580375 232.763087 
L 170.862446 234.222208 
L 171.144501 233.512833 
L 171.567598 240.894949 
L 171.849617 245.243476 
L 172.413779 249.465124 
L 172.55482 249.349778 
L 172.695843 249.055647 
L 173.401001 245.116596 
L 173.68307 243.611337 
L 173.824102 243.928537 
L 174.24719 246.143172 
L 174.388225 245.624117 
L 174.529258 244.378385 
L 175.093384 242.838521 
L 175.375446 241.431306 
L 175.657509 240.906483 
L 175.798532 241.292891 
L 176.926788 252.487177 
L 177.208845 253.317665 
L 177.349882 252.400668 
L 177.490914 252.348762 
L 177.631944 252.717868 
L 177.772976 252.746705 
L 177.914002 252.331461 
L 178.478135 259.921198 
L 178.901223 265.359741 
L 179.183289 266.651611 
L 179.324317 266.651611 
L 179.606381 265.965305 
L 179.747412 264.379304 
L 180.029473 264.102474 
L 180.170505 264.269726 
L 180.311537 263.312357 
L 180.734629 266.651611 
L 181.016691 266.005676 
L 181.157725 264.327398 
L 181.29876 264.338933 
L 181.439786 264.21782 
L 181.580817 265.994142 
L 182.568035 258.715837 
L 183.414227 245.635651 
L 183.837319 247.723406 
L 184.119385 247.429274 
L 184.260414 247.169747 
L 184.542476 245.572211 
L 184.683507 245.750997 
L 184.824536 246.120102 
L 184.96557 245.7856 
L 185.106599 245.993222 
L 185.529693 244.003511 
L 186.093823 243.51906 
L 186.375879 241.621626 
L 187.081038 236.754043 
L 187.786195 233.143727 
L 187.927225 232.849596 
L 188.209287 233.824266 
L 188.632383 237.705644 
L 189.619595 245.906713 
L 189.760631 246.431535 
L 190.042693 245.629884 
L 190.606813 241.558186 
L 190.747854 241.529349 
L 190.888882 241.292891 
L 191.029911 241.621626 
L 192.440225 236.073505 
L 192.863316 235.854348 
L 193.145382 234.700892 
L 193.427445 232.272869 
L 193.568475 231.148249 
L 193.709506 231.055973 
L 194.273631 229.193142 
L 194.555697 226.644005 
L 195.119821 226.476754 
L 195.26085 226.857395 
L 195.401879 226.765118 
L 195.683941 225.652034 
L 195.966005 225.08684 
L 196.530132 223.373959 
L 196.671162 223.218242 
L 196.812192 222.295478 
L 196.953226 222.422358 
L 197.235284 222.151296 
L 197.376323 222.468496 
L 197.940442 228.54144 
L 199.209721 234.741263 
L 199.632818 233.916543 
L 199.914881 232.659276 
L 200.055953 232.301705 
L 200.620079 227.739788 
L 200.902142 294.911272 
L 201.325242 226.384478 
L 201.466274 225.986536 
L 201.607298 224.861917 
L 201.889361 227.687883 
L 202.030399 227.780159 
L 202.171431 226.984275 
L 202.312454 225.334833 
L 202.594524 225.36367 
L 202.735549 224.342862 
L 202.876585 224.827313 
L 203.01762 226.176856 
L 203.158645 226.18839 
L 203.299677 226.713213 
L 203.440706 228.431862 
L 203.72277 225.911561 
L 204.00483 224.492811 
L 204.145869 225.144513 
L 204.427927 223.633486 
L 204.56896 223.356657 
L 204.709984 224.492811 
L 204.851018 226.534427 
L 204.992056 226.286434 
L 205.133087 225.392506 
L 205.274113 225.848121 
L 205.415148 228.07429 
L 205.838244 230.640729 
L 205.979273 230.064001 
L 206.120298 231.154017 
L 206.261335 234.11263 
L 206.402366 233.362884 
L 206.543393 233.974215 
L 206.684429 233.155262 
L 206.966488 234.066492 
L 207.107522 231.788417 
L 207.248555 231.874926 
L 207.389581 230.415805 
L 207.530617 230.750307 
L 207.671647 228.472232 
L 207.812676 229.320022 
L 208.094741 227.75709 
L 208.235769 228.108894 
L 208.376802 227.284173 
L 208.940931 224.798477 
L 209.36402 225.352135 
L 209.787115 218.246849 
L 209.928145 218.546747 
L 210.069176 219.296494 
L 210.210208 217.127997 
L 210.35124 217.577845 
L 210.633301 220.594131 
L 211.056397 214.751879 
L 211.761554 223.54121 
L 212.043615 224.256352 
L 212.325676 225.461713 
L 212.466706 225.415575 
L 212.748769 224.123705 
L 212.8898 223.570046 
L 213.030833 221.407317 
L 213.312896 222.358918 
L 213.735991 220.415345 
L 214.018055 220.6172 
L 214.582175 219.331097 
L 214.723209 217.024186 
L 214.864234 216.851168 
L 215.005268 215.634272 
L 215.146303 215.726549 
L 215.428365 217.324085 
L 216.133521 216.355182 
L 216.274551 217.110695 
L 216.415583 217.099161 
L 216.556613 217.456732 
L 216.838676 216.482062 
L 217.120738 216.845401 
L 217.261765 215.495858 
L 217.402803 215.686178 
L 217.684863 217.047255 
L 217.825896 217.018419 
L 217.966925 216.660848 
L 218.248987 218.171874 
L 218.390017 218.673628 
L 218.531052 217.698958 
L 218.672078 217.635518 
L 218.813116 217.387525 
L 219.095178 218.016158 
L 219.236205 218.079598 
L 219.377233 219.365701 
L 219.518272 219.302261 
L 220.082391 222.041718 
L 220.364458 223.108664 
L 220.505492 222.981784 
L 220.646519 222.43966 
L 220.928578 220.755615 
L 221.210645 223.869945 
L 221.633736 226.632471 
L 221.774766 226.949671 
L 222.056828 225.859656 
L 222.197863 225.346368 
L 222.903018 220.432647 
L 223.044048 220.836357 
L 223.185082 220.242327 
L 223.326114 220.334604 
L 223.467139 221.136255 
L 223.608169 221.286204 
L 223.749207 220.824822 
L 224.031271 219.400305 
L 224.313373 220.057774 
L 224.454412 219.417606 
L 224.595437 219.556021 
L 225.018533 218.713999 
L 225.159567 217.462499 
L 225.300599 217.727794 
L 225.441626 217.427896 
L 225.723693 215.628505 
L 225.864716 215.980309 
L 226.005755 216.78196 
L 226.287812 216.043749 
L 226.569873 217.162601 
L 226.851934 217.237575 
L 226.992974 216.856935 
L 227.134006 217.064557 
L 227.275036 216.960746 
L 227.698122 215.253632 
L 227.839157 215.651574 
L 228.121224 215.23633 
L 228.262253 215.611203 
L 228.403288 215.063312 
L 228.544313 215.392047 
L 228.685347 216.493597 
L 228.826379 216.666615 
L 229.249473 215.518927 
L 229.672563 214.255893 
L 229.813596 213.281223 
L 229.954628 213.246619 
L 230.236692 213.344663 
L 230.377723 214.025202 
L 230.800814 212.271949 
L 230.941849 211.977818 
L 231.788028 208.811583 
L 231.929063 208.949997 
L 232.352156 210.985846 
L 232.493187 211.412625 
L 232.63422 211.470298 
L 232.77525 212.133535 
L 233.057313 211.822102 
L 233.339378 212.519942 
L 233.621442 211.579876 
L 233.762469 211.452996 
L 233.903497 210.951243 
L 234.044533 210.922406 
L 234.326594 212.514175 
L 234.749686 211.262676 
L 234.890721 211.383788 
L 235.172783 210.674413 
L 235.454843 210.743621 
L 235.736907 210.455257 
L 235.877939 210.63981 
L 236.018967 211.089657 
L 236.160001 210.974312 
L 236.724124 215.224795 
L 237.006187 215.120984 
L 237.147217 215.691945 
L 237.288252 215.42665 
L 237.429288 214.382773 
L 237.570314 214.878759 
L 237.711345 214.896061 
L 238.134437 214.734577 
L 238.416501 216.770426 
L 238.557529 216.412855 
L 238.69856 216.80503 
L 238.839594 216.776193 
L 239.121656 215.95724 
L 239.54475 221.430386 
L 239.68578 221.539965 
L 240.390937 215.380512 
L 240.955059 212.179673 
L 241.378159 209.347939 
L 241.519186 209.901598 
L 241.801248 207.77924 
L 241.94228 207.802309 
L 242.224344 206.1471 
L 242.365375 206.262446 
L 242.506404 205.70302 
L 242.647436 205.760693 
L 242.788468 206.08366 
L 243.070533 207.744636 
L 243.352591 208.56359 
L 243.493625 209.734347 
L 243.775687 209.41138 
L 243.916721 209.751649 
L 244.62187 213.696467 
L 244.762904 215.29977 
L 244.903984 218.431402 
L 245.185998 219.060035 
L 245.327028 216.891539 
L 245.468109 216.46476 
L 245.891197 212.000887 
L 246.032231 211.326116 
L 246.173258 211.27421 
L 246.314293 210.605206 
L 246.455328 210.657111 
L 246.596353 210.933941 
L 246.737385 210.732086 
L 246.878414 209.884296 
L 247.019447 210.616741 
L 247.442548 208.62703 
L 247.724606 207.825378 
L 247.865639 208.234855 
L 248.006664 208.142578 
L 248.147695 206.648853 
L 248.570796 206.602715 
L 248.71182 205.714554 
L 249.134922 200.420193 
L 249.840077 204.53803 
L 250.263166 206.418162 
L 250.404199 206.308584 
L 250.545228 205.333914 
L 250.68626 205.426191 
L 251.250389 203.142349 
L 251.532454 201.123801 
L 251.814509 200.650885 
L 252.096573 200.800834 
L 252.237604 200.38559 
L 252.37864 200.368288 
L 252.660694 199.07065 
L 252.801726 200.224106 
L 252.942766 199.5378 
L 253.224822 199.964579 
L 253.365849 199.964579 
L 253.506884 199.583938 
L 253.647916 198.453552 
L 253.788949 196.42347 
L 253.929978 196.458074 
L 254.071012 196.048597 
L 254.353073 198.320904 
L 254.776164 203.834422 
L 254.917192 203.926698 
L 255.058228 204.290037 
L 255.19926 204.19776 
L 255.340289 203.886327 
L 255.763382 201.452536 
L 255.904413 201.539045 
L 256.32751 199.889604 
L 256.46854 200.010717 
L 256.609571 200.287546 
L 256.750604 200.281779 
L 256.891633 200.939248 
L 257.173698 199.09372 
L 257.314725 199.318643 
L 257.455762 198.811123 
L 257.59679 199.72812 
L 257.73782 199.79156 
L 258.301945 201.164172 
L 258.86607 199.312876 
L 259.007102 199.105254 
L 259.14813 200.074157 
L 259.571229 204.843696 
L 259.712259 206.406628 
L 259.853288 206.406628 
L 259.994323 206.158635 
L 260.135353 206.793035 
L 260.276382 206.700759 
L 260.417415 206.308584 
L 260.558446 206.268213 
L 260.981536 205.939478 
L 261.404631 203.546058 
L 261.827726 202.71557 
L 261.968756 203.43648 
L 262.109789 203.165418 
L 262.250819 203.153883 
L 262.532882 201.077663 
L 262.814955 199.98188 
L 262.955978 199.249436 
L 263.097007 199.232134 
L 263.379069 198.476621 
L 263.5201 197.196285 
L 264.225305 202.96933 
L 264.507367 204.797557 
L 264.648397 204.837928 
L 264.789426 205.010947 
L 265.071488 203.719076 
L 265.63561 200.299081 
L 265.776648 200.95655 
L 265.917679 200.10876 
L 266.058708 200.783532 
L 266.199736 200.558608 
L 266.340769 200.789299 
L 267.045927 198.205559 
L 267.186956 197.184751 
L 267.610052 187.818692 
L 268.033148 182.074483 
L 268.174177 182.005276 
L 268.456235 182.316709 
L 268.597267 182.241734 
L 269.302427 185.482944 
L 269.443458 185.44834 
L 270.007579 183.545139 
L 270.14861 184.398696 
L 270.289646 184.006521 
L 270.571706 185.177278 
L 270.712739 185.281089 
L 270.853768 186.123112 
L 270.994799 185.857817 
L 271.417892 183.591277 
L 271.55892 183.706623 
L 271.840987 184.225678 
L 271.98202 185.482944 
L 272.264084 185.442573 
L 272.405109 184.848544 
L 272.54614 183.608579 
L 272.687175 183.539371 
L 272.828209 183.677786 
L 272.969235 184.116099 
L 273.251298 183.464397 
L 273.392329 183.666252 
L 273.674388 184.727431 
L 273.815423 184.917751 
L 274.238517 188.257005 
L 274.661609 198.672708 
L 274.802641 199.797327 
L 275.225734 187.657208 
L 275.366765 186.988204 
L 275.64883 188.631878 
L 275.930887 194.566407 
L 276.212953 191.175247 
L 276.918112 187.651441 
L 277.059141 187.54763 
L 277.200171 186.82672 
L 277.341198 186.844022 
L 277.482236 186.613331 
L 277.905328 184.894682 
L 278.328423 182.062948 
L 278.469453 181.999508 
L 278.751515 180.240489 
L 279.033578 183.05492 
L 279.315641 187.52456 
L 279.5977 189.300882 
L 280.020797 198.390112 
L 280.443891 201.141103 
L 280.866981 202.075402 
L 281.149044 201.596718 
L 281.290077 201.896617 
L 281.431107 201.665925 
L 281.713167 196.204313 
L 281.854242 198.280533 
L 282.277345 193.764755 
L 282.559406 192.33447 
L 282.700436 192.392143 
L 283.123531 192.247961 
L 283.264557 192.501721 
L 283.54662 192.253728 
L 283.687649 192.784318 
L 284.392811 188.8395 
L 284.956934 182.034112 
L 285.380028 187.634139 
L 285.662089 188.049383 
L 285.803117 188.141659 
L 285.94415 187.86483 
L 286.085181 189.075958 
L 286.226218 188.551136 
L 286.367239 188.493463 
L 286.649308 187.934037 
L 286.790334 187.011273 
L 286.931373 187.985943 
L 287.072398 187.934037 
L 287.354459 188.862569 
L 287.495494 188.678016 
L 287.918586 187.311171 
L 288.200648 185.552151 
L 288.482712 184.594783 
L 288.623744 184.300652 
L 288.764771 184.329489 
L 288.905801 183.700855 
L 289.046833 183.643182 
L 289.3289 184.185307 
L 289.469933 183.920012 
L 289.610959 183.954615 
L 289.751994 185.477177 
L 290.17509 187.01704 
L 290.457148 189.53734 
L 290.73921 190.304388 
L 290.880242 189.871842 
L 291.021268 189.917981 
L 291.162307 189.433529 
L 291.303336 189.462366 
L 291.5854 188.556903 
L 291.726425 187.484189 
L 291.867457 187.380378 
L 292.149522 184.894682 
L 292.290556 184.277583 
L 292.854679 179.127404 
L 293.136742 180.142445 
L 293.277772 180.142445 
L 293.418802 179.911754 
L 293.559835 180.188583 
L 293.841895 179.894452 
L 294.12396 179.975194 
L 294.26499 180.621129 
L 294.406023 180.655733 
L 294.547055 180.263558 
L 294.829113 180.667267 
L 294.970146 181.145951 
L 295.252211 183.233706 
L 295.39324 182.749254 
L 295.534266 182.893436 
L 295.675298 182.80116 
L 296.098402 186.480683 
L 296.239424 186.936298 
L 296.380461 186.607563 
L 296.662519 188.228168 
L 296.944584 187.357309 
L 297.085612 187.818692 
L 297.649735 191.82695 
L 297.790771 191.705837 
L 297.931802 192.288332 
L 298.072829 192.057641 
L 298.213862 192.472885 
L 298.354912 192.374841 
L 298.495931 191.509749 
L 298.636956 191.873088 
L 298.777987 191.896157 
L 298.919018 192.092244 
L 299.060047 191.636629 
L 299.20113 191.919226 
L 299.342163 191.636629 
L 299.624223 192.08071 
L 299.765253 191.619328 
L 299.906282 191.751975 
L 300.047314 191.3598 
L 300.329372 191.878855 
L 300.470409 192.27103 
L 300.611442 192.167219 
L 300.752469 192.282565 
L 301.175568 191.388637 
L 301.31659 191.602026 
L 301.457629 191.411706 
L 301.598653 192.14415 
L 301.739691 192.028804 
L 302.021753 191.221385 
L 302.303815 188.112823 
L 302.444847 188.124357 
L 302.867936 189.739195 
L 303.008968 189.796868 
L 303.150001 189.669988 
L 303.291028 189.952584 
L 303.855151 187.305404 
L 303.999064 187.726415 
L 304.419274 186.711374 
L 304.560316 187.755252 
L 304.701346 187.622604 
L 304.98341 184.900449 
L 305.547529 181.151719 
L 305.688558 181.001769 
L 306.111658 185.119606 
L 306.393713 191.463611 
L 306.675778 202.127308 
L 307.663001 231.327035 
L 307.804031 233.939612 
L 307.945058 234.389459 
L 308.368153 232.370912 
L 309.355367 223.362424 
L 309.496401 223.252846 
L 309.637432 223.627719 
L 309.778464 225.127211 
L 309.919493 225.156048 
L 310.201559 226.182623 
L 310.483617 225.859656 
L 310.765683 226.026907 
L 311.188774 224.665829 
L 311.329805 224.596622 
L 311.611865 223.062526 
L 311.893929 223.639254 
L 312.175994 225.732776 
L 312.599085 224.417836 
L 312.740117 223.172104 
L 312.88115 220.559527 
L 313.16321 219.106173 
L 313.304245 218.269918 
L 314.009397 210.83013 
L 314.291462 212.075862 
L 314.43249 212.093164 
L 314.714555 214.45198 
L 314.855583 216.251371 
L 315.137646 215.888032 
L 315.278674 215.8938 
L 315.560741 214.746111 
L 315.842845 212.214276 
L 316.548001 206.199006 
L 316.689041 206.429697 
L 317.112129 202.513715 
L 317.394188 201.077663 
L 317.535226 199.174461 
L 317.676256 199.278272 
L 317.817284 198.655406 
L 318.522445 209.347939 
L 318.663469 209.463285 
L 318.804502 210.864733 
L 319.086568 215.305537 
L 319.368625 217.427896 
L 319.509659 217.041488 
L 319.65069 217.231808 
L 320.214814 219.244588 
L 320.35585 220.524924 
L 320.496876 220.444182 
L 321.061005 217.347154 
L 321.202033 217.727794 
L 321.343062 217.231808 
L 321.625127 217.358688 
L 321.907187 216.678149 
L 322.048221 216.776193 
L 322.189251 216.522433 
L 322.330279 215.876498 
L 322.47131 216.666615 
L 322.612345 216.470527 
L 322.753374 216.516666 
L 322.894413 217.202972 
L 323.176476 215.640039 
L 323.599562 216.643546 
L 324.022653 214.601929 
L 324.163691 214.624999 
L 324.44575 212.889048 
L 324.727808 213.892554 
L 325.009873 214.342402 
L 325.150912 214.532722 
L 325.432966 215.247865 
L 325.715031 214.117478 
L 325.997092 214.988337 
L 326.138123 215.063312 
L 326.843282 213.027463 
L 326.984306 213.298525 
L 327.407408 212.531477 
L 327.548432 212.50264 
L 327.689468 212.023956 
L 327.830495 212.041258 
L 328.253588 210.83013 
L 328.535651 210.645577 
L 328.676682 209.999642 
L 328.817713 210.905104 
L 328.958746 210.466791 
L 329.099775 210.743621 
L 329.240806 211.597178 
L 329.381837 211.239607 
L 329.522871 211.395323 
L 329.663901 210.651344 
L 329.804933 210.870501 
L 330.086994 210.201497 
L 330.228025 210.507162 
L 330.792151 207.260185 
L 330.933181 207.456272 
L 331.497307 204.393848 
L 331.638338 204.382313 
L 331.920398 203.482618 
L 332.061431 204.036277 
L 332.202505 204.117019 
L 332.343535 204.416917 
L 332.484569 203.845956 
L 332.625605 203.857491 
L 332.766626 204.036277 
L 332.907666 204.405382 
L 333.330752 206.61425 
L 333.753854 203.148116 
L 333.894885 203.286531 
L 334.035916 203.892095 
L 334.176945 203.909397 
L 334.459002 204.226597 
L 334.882104 207.96956 
L 335.023131 207.859982 
L 335.164162 207.560083 
L 335.58725 205.091688 
L 336.010347 203.176952 
L 336.151382 203.251927 
L 336.433438 200.316382 
L 336.715503 200.177968 
L 336.997564 202.957796 
L 337.138598 202.882821 
L 337.279627 202.450275 
L 338.125815 196.250452 
L 338.266847 196.36003 
L 338.407877 197.432744 
L 338.54891 197.403907 
L 338.830968 199.855 
L 338.972 199.612775 
L 339.113031 199.999182 
L 339.395094 201.833177 
L 339.677159 203.667171 
L 339.95922 202.369533 
L 340.100253 202.375301 
L 340.523344 204.439986 
L 340.664375 204.872532 
L 340.805412 204.693746 
L 341.087469 201.469838 
L 341.228502 201.123801 
L 341.369534 201.562114 
L 341.510565 199.91844 
L 341.792621 200.293313 
L 341.933656 200.10876 
L 342.215718 201.221845 
L 342.779844 199.889604 
L 343.343966 190.223646 
L 343.767062 193.793591 
L 343.908093 193.188027 
L 344.049122 193.568668 
L 344.331184 196.002459 
L 344.754278 199.491662 
L 344.895307 199.566636 
L 345.17737 199.174461 
L 345.318405 198.805356 
L 345.459435 199.514731 
L 345.882526 196.965594 
L 346.164588 197.853755 
L 346.446652 198.822658 
L 346.728716 200.345219 
L 346.869743 199.710818 
L 347.574902 193.960842 
L 347.715932 194.128093 
L 347.997995 191.838484 
L 348.280055 189.300882 
L 348.421086 190.535079 
L 348.562119 190.540847 
L 348.703149 191.100273 
L 348.844176 190.817676 
L 348.98526 191.469378 
L 349.549381 196.919456 
L 349.831443 194.439526 
L 350.11351 195.737164 
L 350.254541 195.033556 
L 350.818663 190.656192 
L 351.24176 195.108531 
L 351.523822 192.449816 
L 351.664851 192.121081 
L 351.946913 189.174002 
L 352.087937 189.133631 
L 352.370001 190.298621 
L 352.511038 190.829211 
L 352.652072 190.154439 
L 352.934129 191.036833 
L 353.075162 192.86506 
L 353.216191 193.205329 
L 353.498258 195.056625 
L 353.63928 194.66445 
L 354.062379 191.123342 
L 354.203413 190.650425 
L 354.344444 190.610054 
L 354.485469 189.716126 
L 354.626503 186.89016 
L 354.767537 186.676771 
L 354.908569 186.901694 
L 355.75475 194.133861 
L 355.89578 193.897402 
L 356.177847 191.994201 
L 356.318881 191.648164 
L 356.459903 190.708098 
L 356.883004 190.315923 
L 357.024034 190.650425 
L 357.588159 186.918996 
L 357.729186 187.005505 
L 358.011251 185.97893 
L 358.152281 186.469149 
L 358.857433 191.971132 
L 359.1395 192.184521 
L 359.562597 189.566177 
L 360.126718 194.162697 
L 360.408778 192.934267 
L 360.549811 192.449816 
L 360.972905 188.187797 
L 361.113935 189.122096 
L 361.395999 192.392143 
L 361.537027 193.551366 
L 361.678059 192.957336 
L 361.819095 193.516762 
L 361.960123 193.418718 
L 362.101151 193.707082 
L 362.524247 191.077204 
L 362.665277 191.642397 
L 362.806309 191.42324 
L 362.947339 190.886883 
L 363.229403 191.82695 
L 363.934558 184.260281 
L 364.216621 184.329489 
L 364.780743 187.882132 
L 364.921774 186.561425 
L 365.062807 186.942065 
L 365.203833 186.261527 
L 365.344871 184.675525 
L 365.485897 184.762034 
L 365.768012 188.112823 
L 365.90899 188.718387 
L 366.191107 187.807157 
L 366.473168 188.522299 
L 367.037286 185.59829 
L 367.319346 187.899433 
L 367.883478 188.608809 
L 368.02451 189.087493 
L 368.447601 187.213127 
L 369.011726 191.325196 
L 369.293788 191.867321 
L 370.13997 187.830226 
L 370.422033 186.642167 
L 370.986163 183.908477 
L 371.127189 184.790871 
L 371.268223 184.854311 
L 371.409254 185.730937 
L 371.550282 185.754006 
L 371.832345 186.151948 
L 372.114405 183.954615 
L 372.255441 184.121867 
L 372.678533 185.3849 
L 373.101627 182.899204 
L 373.242655 183.152964 
L 373.38369 182.945342 
L 373.665749 183.695088 
L 373.947811 182.708883 
L 374.370907 183.383655 
L 374.511938 182.881902 
L 374.793998 183.256775 
L 375.076062 184.710129 
L 375.358126 182.67428 
L 375.640182 178.043156 
L 375.781216 176.682078 
L 375.922248 176.520594 
L 376.909467 201.308354 
L 377.191531 205.132059 
L 377.332559 204.826394 
L 377.614619 202.998167 
L 377.896689 200.800834 
L 378.037717 200.89311 
L 378.319774 203.597964 
L 378.460811 203.603731 
L 378.742871 204.180459 
L 379.165965 208.240622 
L 379.448026 207.496643 
L 379.589059 205.789529 
L 379.730088 205.801064 
L 380.435248 213.673398 
L 380.717307 214.699973 
L 381.140399 216.903073 
L 381.28143 217.202972 
L 381.422462 217.099161 
L 381.563491 219.123475 
L 381.704522 218.310289 
L 381.84556 216.816564 
L 381.986585 217.174135 
L 382.691742 226.240296 
L 383.114878 227.203431 
L 383.255911 227.238035 
L 384.102101 212.894815 
L 384.243127 212.231578 
L 384.525196 214.913362 
L 385.089316 219.786712 
L 385.371376 221.937907 
L 385.794469 225.963467 
L 385.935507 226.9093 
L 386.217571 225.352135 
L 386.3586 223.41433 
L 386.499622 223.916083 
L 386.640655 223.639254 
L 386.922717 218.812042 
L 387.627876 199.912673 
L 387.909937 188.510765 
L 388.756129 147.626533 
L 389.179219 139.027522 
L 389.32025 138.600743 
L 389.461279 136.922465 
L 389.602308 137.776023 
L 389.743345 137.59147 
L 390.307466 129.032829 
L 391.435716 78.932488 
L 391.717777 68.511017 
L 392.140871 54.311979 
L 392.281903 53.568 
L 392.422936 55.246278 
L 392.704996 65.569705 
L 393.551184 113.270859 
L 394.115304 126.039612 
L 395.807679 144.483367 
L 395.948711 144.293046 
L 396.512836 149.195232 
L 396.653866 149.950746 
L 397.217992 154.812561 
L 397.500066 154.195462 
L 397.782114 155.083623 
L 398.487273 159.034208 
L 398.487273 159.034208 
" clip-path="url(#p1d23c5f807)" style="fill: none; stroke: #808080; stroke-width: 1.5; stroke-linecap: square"/>
   </g>
   <g id="line2d_15">
    <path d="M 73.832727 266.651611 
L 75.243034 266.651611 
L 75.525102 267.90311 
L 75.807161 268.56058 
L 76.371285 271.870998 
L 76.65335 274.506644 
L 76.794382 274.679662 
L 76.935416 274.581618 
L 77.076445 274.108701 
L 77.640571 263.635325 
L 77.922629 264.419675 
L 78.90986 278.226538 
L 79.191914 277.228799 
L 79.473976 277.52293 
L 79.897068 272.441958 
L 80.461197 277.753621 
L 80.74326 280.481543 
L 80.884289 281.473515 
L 81.02532 281.560024 
L 81.307385 282.332839 
L 81.589446 282.061777 
L 81.87151 280.694933 
L 82.012543 281.265893 
L 82.15357 279.639521 
L 82.2946 279.870212 
L 82.435633 278.013148 
L 82.576661 278.082356 
L 82.858727 278.993586 
L 83.140789 277.413352 
L 83.986977 264.840686 
L 84.410076 271.461521 
L 84.551105 270.786749 
L 84.833164 267.309081 
L 84.974199 268.093431 
L 85.115228 266.893837 
L 85.397292 269.754407 
L 85.679354 274.241349 
L 85.820385 274.149072 
L 86.102447 274.673895 
L 86.243486 274.581618 
L 86.666575 275.210251 
L 86.948638 272.563071 
L 87.089668 269.962029 
L 87.2307 270.111978 
L 87.653792 266.651611 
L 87.794865 266.651611 
L 87.935903 266.311342 
L 88.076937 266.651611 
L 88.500031 270.798284 
L 88.641061 272.361216 
L 88.923125 268.006921 
L 89.346214 266.305575 
L 89.487243 262.724095 
L 89.628273 262.729862 
L 89.910338 267.245641 
L 90.192402 270.544524 
L 90.474466 266.651611 
L 90.756527 266.172927 
L 91.179623 269.402603 
L 92.30787 262.966321 
L 92.448904 262.972088 
L 93.295093 275.602426 
L 93.577153 276.778951 
L 93.859215 276.773184 
L 94.000245 275.815816 
L 94.423341 276.836624 
L 94.846436 273.128264 
L 94.987466 273.122497 
L 95.128496 272.453493 
L 95.269528 272.747624 
L 95.551591 270.515687 
L 95.692622 270.463782 
L 95.833655 269.927425 
L 95.974684 270.083141 
L 96.115716 268.17994 
L 96.256747 268.099198 
L 96.397779 267.245641 
L 97.102939 265.273232 
L 97.243971 263.571885 
L 97.52603 269.483345 
L 98.090158 287.194655 
L 98.37222 295.488 
L 102.603154 295.488 
L 102.74419 295.286145 
L 102.885216 293.659773 
L 103.308313 286.427607 
L 103.590375 283.434389 
L 103.731408 281.871457 
L 103.872438 281.715741 
L 104.295536 277.223031 
L 104.436563 276.980806 
L 104.718626 273.43393 
L 105.423784 262.210807 
L 105.564817 262.153135 
L 105.846882 265.498156 
L 105.987911 265.72308 
L 106.269973 266.657379 
L 107.116158 266.582404 
L 107.257193 266.317109 
L 107.398221 266.651611 
L 107.539257 265.890331 
L 107.680286 265.965305 
L 107.821311 265.371276 
L 107.962345 265.544294 
L 108.385438 265.688476 
L 108.526474 266.386316 
L 108.667505 265.469319 
L 108.949569 266.213298 
L 109.090597 265.861494 
L 109.231626 266.455524 
L 109.513691 265.867261 
L 109.654725 266.051814 
L 109.795757 266.432455 
L 109.93679 266.282505 
L 110.077817 266.651611 
L 110.218849 266.005676 
L 110.500907 266.651611 
L 110.641943 266.172927 
L 110.782971 266.097953 
L 110.924007 266.651611 
L 111.065037 265.919167 
L 111.20607 266.651611 
L 111.488129 266.651611 
L 111.629163 266.253669 
L 111.911222 266.651611 
L 112.052257 266.651611 
L 112.193286 265.746149 
L 112.334317 265.896098 
L 112.616382 265.561596 
L 112.757413 265.844192 
L 112.898445 265.480854 
L 113.180501 265.746149 
L 113.321535 265.653872 
L 113.462569 265.705778 
L 113.744634 264.713806 
L 114.167769 264.431209 
L 114.308802 264.212053 
L 114.449832 263.168175 
L 114.731893 263.791041 
L 114.872924 263.49691 
L 115.154994 264.546555 
L 115.296021 264.379304 
L 115.437053 264.477348 
L 115.57809 264.073638 
L 115.86015 265.111748 
L 116.001172 265.042541 
L 116.424274 265.965305 
L 116.706329 267.955016 
L 116.847363 268.745133 
L 116.988397 268.197242 
L 117.270459 272.211267 
L 117.552522 274.823844 
L 117.975616 276.577096 
L 118.257677 275.475546 
L 118.398712 273.739596 
L 118.539739 273.491603 
L 118.680772 273.531974 
L 118.96284 272.620744 
L 119.103869 273.439697 
L 119.244894 273.209006 
L 119.526959 274.385531 
L 120.23212 282.598134 
L 120.373148 281.819552 
L 120.514177 282.217494 
L 120.937273 279.253113 
L 121.64243 261.939745 
L 121.783461 260.567133 
L 121.924493 260.670944 
L 122.065524 260.970843 
L 122.488619 262.256946 
L 122.62965 263.721834 
L 123.193775 273.393559 
L 123.616869 277.026944 
L 124.039963 275.562055 
L 124.463054 271.697979 
L 125.02718 265.503923 
L 125.450275 257.504709 
L 125.87337 250.139895 
L 126.155432 246.37963 
L 126.155432 246.37963 
" clip-path="url(#p1d23c5f807)" style="fill: none; stroke: #808080; stroke-width: 1.5; stroke-linecap: square"/>
   </g>
   <g id="line2d_16">
    <path d="M 126.155432 246.37963 
L 126.437497 243.853562 
L 126.860589 243.830493 
L 127.142651 244.908974 
L 127.424716 246.598786 
L 127.565744 246.345026 
L 128.129872 243.98621 
L 128.270902 244.222668 
L 128.411933 243.173023 
L 128.552964 243.299904 
L 128.693994 244.164995 
L 129.258119 238.801427 
L 129.39915 238.622641 
L 129.681218 235.416035 
L 129.963278 238.824496 
L 130.104309 239.695355 
L 130.809463 248.080977 
L 131.091529 248.842258 
L 131.232559 250.070688 
L 131.373588 250.220637 
L 131.655651 251.097263 
L 132.078747 256.184002 
L 132.501841 257.98916 
L 132.783901 258.358266 
L 132.924935 258.225618 
L 133.348029 255.676482 
L 133.771123 251.95082 
L 133.912151 252.112304 
L 134.053186 251.489438 
L 134.194215 251.720129 
L 134.335247 251.547111 
L 134.617312 250.670485 
L 134.758341 248.680774 
L 134.899374 248.478919 
L 135.181438 246.408466 
L 135.604531 240.693094 
L 135.745559 241.431306 
L 136.027624 240.358592 
L 136.309687 243.340275 
L 136.732781 249.165225 
L 137.43793 255.572671 
L 137.578968 255.670714 
L 137.72 255.936009 
L 138.002059 253.952066 
L 138.566185 246.391164 
L 138.707216 246.345026 
L 138.848246 246.425768 
L 139.130312 245.958619 
L 139.412375 246.546881 
L 139.55341 245.174269 
L 139.694436 245.099294 
L 139.835472 246.327724 
L 139.976497 246.200844 
L 140.11753 246.258517 
L 140.258565 245.877877 
L 140.399596 246.241215 
L 140.681655 245.837506 
L 140.963714 247.931028 
L 141.386854 251.996958 
L 141.527887 251.916217 
L 141.668915 253.300363 
L 141.809947 253.225389 
L 142.233048 255.538067 
L 142.656137 254.742183 
L 142.797169 255.589972 
L 142.938202 254.736415 
L 143.079235 254.649906 
L 143.643361 243.830493 
L 143.784387 243.663242 
L 144.207481 249.274803 
L 144.348518 249.188294 
L 144.630576 249.286338 
L 144.771605 249.222898 
L 144.91264 248.813421 
L 145.053671 249.517029 
L 145.194704 249.470891 
L 145.33573 248.363573 
L 145.476762 248.253995 
L 145.617798 247.752242 
L 145.758832 246.794874 
L 145.899857 246.881383 
L 146.463985 245.1512 
L 146.605021 245.635651 
L 147.028106 251.425998 
L 147.31017 254.93827 
L 147.451199 255.336212 
L 147.592239 256.35702 
L 147.733266 255.872569 
L 148.43842 250.970383 
L 148.861517 249.297872 
L 149.284609 244.764792 
L 149.566672 248.64617 
L 149.707709 249.528564 
L 149.848737 249.470891 
L 149.989766 249.615073 
L 150.130797 249.274803 
L 150.271833 248.253995 
L 151.259048 243.109583 
L 151.54111 245.105062 
L 151.823175 248.559661 
L 151.964205 249.067181 
L 152.105237 250.157197 
L 152.246266 250.272542 
L 152.528329 251.339489 
L 152.669364 250.993452 
L 153.797613 256.097493 
L 154.079673 255.428489 
L 154.784831 248.357806 
L 155.066894 247.561922 
L 155.207921 247.233187 
L 155.772049 242.538623 
L 155.913084 242.013801 
L 156.336176 244.211133 
L 156.759269 248.340504 
L 156.9003 247.700337 
L 157.041328 247.659966 
L 157.323391 246.927521 
L 157.464426 246.016291 
L 157.605458 246.345026 
L 157.746486 246.102801 
L 157.88752 246.806408 
L 158.16958 248.715377 
L 158.310609 249.205596 
L 158.451646 249.292105 
L 158.592677 250.382121 
L 158.733706 250.220637 
L 158.874738 251.068427 
L 159.01577 250.53207 
L 159.297832 247.394671 
L 159.579895 245.970153 
L 159.720923 246.160473 
L 159.86196 245.376124 
L 160.002992 245.918248 
L 160.144017 245.65872 
L 160.285048 246.858314 
L 160.426083 246.143172 
L 160.56711 246.137404 
L 160.708144 245.877877 
L 160.849175 245.197338 
L 161.413304 238.818729 
L 161.695367 238.190096 
L 161.836397 238.230466 
L 162.259488 240.15097 
L 162.682579 245.162734 
L 163.246708 251.996958 
L 163.669802 254.817157 
L 163.951865 253.790582 
L 164.092896 252.337228 
L 164.233925 252.043097 
L 164.374958 252.285322 
L 164.515985 251.783569 
L 164.65702 252.14114 
L 164.939081 251.662456 
L 165.080114 250.376353 
L 165.221146 250.335982 
L 165.644247 246.420001 
L 165.785273 247.429274 
L 165.926298 247.29086 
L 166.208361 246.794874 
L 166.349398 247.140911 
L 166.63146 246.154706 
L 166.772491 246.154706 
L 166.913522 245.727928 
L 167.195583 243.2653 
L 167.336611 243.478689 
L 168.605897 235.439104 
L 168.746927 235.323758 
L 168.887962 236.096574 
L 168.887962 236.096574 
" clip-path="url(#p1d23c5f807)" style="fill: none; stroke: #ff0000; stroke-width: 1.5; stroke-linecap: square"/>
   </g>
   <g id="line2d_17">
    <path d="M 180.593597 265.63657 
L 180.734629 266.651611 
L 181.016691 266.005676 
L 181.157725 264.327398 
L 181.29876 264.338933 
L 181.439786 264.21782 
L 181.580817 265.994142 
L 182.568035 258.715837 
L 183.414227 245.635651 
L 183.837319 247.723406 
L 184.119385 247.429274 
L 184.260414 247.169747 
L 184.542476 245.572211 
L 184.683507 245.750997 
L 184.824536 246.120102 
L 184.96557 245.7856 
L 185.106599 245.993222 
L 185.529693 244.003511 
L 186.093823 243.51906 
L 186.375879 241.621626 
L 187.081038 236.754043 
L 187.786195 233.143727 
L 187.927225 232.849596 
L 188.209287 233.824266 
L 188.632383 237.705644 
L 189.619595 245.906713 
L 189.760631 246.431535 
L 190.042693 245.629884 
L 190.606813 241.558186 
L 190.747854 241.529349 
L 190.888882 241.292891 
L 191.029911 241.621626 
L 192.440225 236.073505 
L 192.863316 235.854348 
L 193.145382 234.700892 
L 193.427445 232.272869 
L 193.568475 231.148249 
L 193.709506 231.055973 
L 194.273631 229.193142 
L 194.555697 226.644005 
L 195.119821 226.476754 
L 195.26085 226.857395 
L 195.401879 226.765118 
L 195.683941 225.652034 
L 195.966005 225.08684 
L 196.530132 223.373959 
L 196.671162 223.218242 
L 196.812192 222.295478 
L 196.953226 222.422358 
L 197.235284 222.151296 
L 197.376323 222.468496 
L 197.940442 228.54144 
L 199.209721 234.741263 
L 199.632818 233.916543 
L 199.914881 232.659276 
L 200.055953 232.301705 
L 200.620079 227.739788 
L 200.902142 294.911272 
L 201.325242 226.384478 
L 201.466274 225.986536 
L 201.607298 224.861917 
L 201.889361 227.687883 
L 202.030399 227.780159 
L 202.171431 226.984275 
L 202.312454 225.334833 
L 202.594524 225.36367 
L 202.735549 224.342862 
L 202.876585 224.827313 
L 203.01762 226.176856 
L 203.158645 226.18839 
L 203.299677 226.713213 
L 203.440706 228.431862 
L 203.72277 225.911561 
L 204.00483 224.492811 
L 204.145869 225.144513 
L 204.427927 223.633486 
L 204.56896 223.356657 
L 204.709984 224.492811 
L 204.851018 226.534427 
L 204.992056 226.286434 
L 205.133087 225.392506 
L 205.274113 225.848121 
L 205.415148 228.07429 
L 205.838244 230.640729 
L 205.979273 230.064001 
L 206.120298 231.154017 
L 206.261335 234.11263 
L 206.402366 233.362884 
L 206.543393 233.974215 
L 206.684429 233.155262 
L 206.966488 234.066492 
L 207.107522 231.788417 
L 207.248555 231.874926 
L 207.389581 230.415805 
L 207.530617 230.750307 
L 207.671647 228.472232 
L 207.812676 229.320022 
L 208.094741 227.75709 
L 208.235769 228.108894 
L 208.376802 227.284173 
L 208.940931 224.798477 
L 209.36402 225.352135 
L 209.787115 218.246849 
L 209.928145 218.546747 
L 210.069176 219.296494 
L 210.210208 217.127997 
L 210.35124 217.577845 
L 210.633301 220.594131 
L 211.056397 214.751879 
L 211.761554 223.54121 
L 212.043615 224.256352 
L 212.325676 225.461713 
L 212.466706 225.415575 
L 212.748769 224.123705 
L 212.8898 223.570046 
L 213.030833 221.407317 
L 213.312896 222.358918 
L 213.735991 220.415345 
L 214.018055 220.6172 
L 214.582175 219.331097 
L 214.723209 217.024186 
L 214.864234 216.851168 
L 215.005268 215.634272 
L 215.146303 215.726549 
L 215.428365 217.324085 
L 216.133521 216.355182 
L 216.274551 217.110695 
L 216.415583 217.099161 
L 216.556613 217.456732 
L 216.838676 216.482062 
L 217.120738 216.845401 
L 217.261765 215.495858 
L 217.402803 215.686178 
L 217.684863 217.047255 
L 217.825896 217.018419 
L 217.966925 216.660848 
L 218.248987 218.171874 
L 218.390017 218.673628 
L 218.531052 217.698958 
L 218.672078 217.635518 
L 218.813116 217.387525 
L 219.095178 218.016158 
L 219.236205 218.079598 
L 219.377233 219.365701 
L 219.518272 219.302261 
L 220.082391 222.041718 
L 220.364458 223.108664 
L 220.505492 222.981784 
L 220.646519 222.43966 
L 220.928578 220.755615 
L 221.210645 223.869945 
L 221.633736 226.632471 
L 221.774766 226.949671 
L 222.056828 225.859656 
L 222.197863 225.346368 
L 222.903018 220.432647 
L 223.044048 220.836357 
L 223.185082 220.242327 
L 223.326114 220.334604 
L 223.467139 221.136255 
L 223.608169 221.286204 
L 223.749207 220.824822 
L 224.031271 219.400305 
L 224.313373 220.057774 
L 224.454412 219.417606 
L 224.595437 219.556021 
L 225.018533 218.713999 
L 225.159567 217.462499 
L 225.300599 217.727794 
L 225.441626 217.427896 
L 225.723693 215.628505 
L 225.864716 215.980309 
L 226.005755 216.78196 
L 226.287812 216.043749 
L 226.569873 217.162601 
L 226.851934 217.237575 
L 226.992974 216.856935 
L 227.134006 217.064557 
L 227.275036 216.960746 
L 227.698122 215.253632 
L 227.839157 215.651574 
L 228.121224 215.23633 
L 228.262253 215.611203 
L 228.403288 215.063312 
L 228.544313 215.392047 
L 228.685347 216.493597 
L 228.826379 216.666615 
L 229.249473 215.518927 
L 229.672563 214.255893 
L 229.813596 213.281223 
L 229.954628 213.246619 
L 230.236692 213.344663 
L 230.377723 214.025202 
L 230.800814 212.271949 
L 230.941849 211.977818 
L 231.788028 208.811583 
L 231.929063 208.949997 
L 232.352156 210.985846 
L 232.493187 211.412625 
L 232.63422 211.470298 
L 232.77525 212.133535 
L 233.057313 211.822102 
L 233.339378 212.519942 
L 233.621442 211.579876 
L 233.762469 211.452996 
L 233.903497 210.951243 
L 234.044533 210.922406 
L 234.326594 212.514175 
L 234.749686 211.262676 
L 234.890721 211.383788 
L 235.172783 210.674413 
L 235.454843 210.743621 
L 235.736907 210.455257 
L 235.877939 210.63981 
L 236.018967 211.089657 
L 236.160001 210.974312 
L 236.724124 215.224795 
L 237.006187 215.120984 
L 237.147217 215.691945 
L 237.288252 215.42665 
L 237.429288 214.382773 
L 237.570314 214.878759 
L 237.711345 214.896061 
L 238.134437 214.734577 
L 238.416501 216.770426 
L 238.557529 216.412855 
L 238.69856 216.80503 
L 238.839594 216.776193 
L 239.121656 215.95724 
L 239.54475 221.430386 
L 239.68578 221.539965 
L 240.390937 215.380512 
L 240.955059 212.179673 
L 241.378159 209.347939 
L 241.519186 209.901598 
L 241.801248 207.77924 
L 241.94228 207.802309 
L 242.224344 206.1471 
L 242.365375 206.262446 
L 242.506404 205.70302 
L 242.647436 205.760693 
L 242.788468 206.08366 
L 243.070533 207.744636 
L 243.352591 208.56359 
L 243.493625 209.734347 
L 243.775687 209.41138 
L 243.916721 209.751649 
L 244.62187 213.696467 
L 244.762904 215.29977 
L 244.903984 218.431402 
L 245.185998 219.060035 
L 245.327028 216.891539 
L 245.468109 216.46476 
L 245.891197 212.000887 
L 246.032231 211.326116 
L 246.173258 211.27421 
L 246.314293 210.605206 
L 246.455328 210.657111 
L 246.596353 210.933941 
L 246.737385 210.732086 
L 246.878414 209.884296 
L 247.019447 210.616741 
L 247.442548 208.62703 
L 247.724606 207.825378 
L 247.865639 208.234855 
L 248.006664 208.142578 
L 248.147695 206.648853 
L 248.570796 206.602715 
L 248.71182 205.714554 
L 249.134922 200.420193 
L 249.840077 204.53803 
L 250.263166 206.418162 
L 250.404199 206.308584 
L 250.545228 205.333914 
L 250.68626 205.426191 
L 251.250389 203.142349 
L 251.532454 201.123801 
L 251.814509 200.650885 
L 252.096573 200.800834 
L 252.237604 200.38559 
L 252.37864 200.368288 
L 252.660694 199.07065 
L 252.801726 200.224106 
L 252.942766 199.5378 
L 253.224822 199.964579 
L 253.365849 199.964579 
L 253.506884 199.583938 
L 253.647916 198.453552 
L 253.788949 196.42347 
L 253.929978 196.458074 
L 254.071012 196.048597 
L 254.353073 198.320904 
L 254.776164 203.834422 
L 254.917192 203.926698 
L 255.058228 204.290037 
L 255.19926 204.19776 
L 255.340289 203.886327 
L 255.763382 201.452536 
L 255.904413 201.539045 
L 256.32751 199.889604 
L 256.46854 200.010717 
L 256.609571 200.287546 
L 256.750604 200.281779 
L 256.891633 200.939248 
L 257.173698 199.09372 
L 257.314725 199.318643 
L 257.455762 198.811123 
L 257.59679 199.72812 
L 257.73782 199.79156 
L 258.301945 201.164172 
L 258.86607 199.312876 
L 259.007102 199.105254 
L 259.14813 200.074157 
L 259.571229 204.843696 
L 259.712259 206.406628 
L 259.853288 206.406628 
L 259.994323 206.158635 
L 260.135353 206.793035 
L 260.276382 206.700759 
L 260.417415 206.308584 
L 260.558446 206.268213 
L 260.981536 205.939478 
L 261.404631 203.546058 
L 261.827726 202.71557 
L 261.968756 203.43648 
L 262.109789 203.165418 
L 262.250819 203.153883 
L 262.532882 201.077663 
L 262.814955 199.98188 
L 262.955978 199.249436 
L 263.097007 199.232134 
L 263.379069 198.476621 
L 263.5201 197.196285 
L 264.225305 202.96933 
L 264.507367 204.797557 
L 264.648397 204.837928 
L 264.789426 205.010947 
L 265.071488 203.719076 
L 265.63561 200.299081 
L 265.776648 200.95655 
L 265.917679 200.10876 
L 266.058708 200.783532 
L 266.199736 200.558608 
L 266.340769 200.789299 
L 267.045927 198.205559 
L 267.186956 197.184751 
L 267.610052 187.818692 
L 268.033148 182.074483 
L 268.174177 182.005276 
L 268.456235 182.316709 
L 268.597267 182.241734 
L 269.302427 185.482944 
L 269.443458 185.44834 
L 270.007579 183.545139 
L 270.14861 184.398696 
L 270.289646 184.006521 
L 270.571706 185.177278 
L 270.712739 185.281089 
L 270.853768 186.123112 
L 270.994799 185.857817 
L 271.417892 183.591277 
L 271.55892 183.706623 
L 271.840987 184.225678 
L 271.98202 185.482944 
L 272.264084 185.442573 
L 272.405109 184.848544 
L 272.54614 183.608579 
L 272.687175 183.539371 
L 272.828209 183.677786 
L 272.969235 184.116099 
L 273.251298 183.464397 
L 273.392329 183.666252 
L 273.674388 184.727431 
L 273.815423 184.917751 
L 274.238517 188.257005 
L 274.661609 198.672708 
L 274.802641 199.797327 
L 275.225734 187.657208 
L 275.366765 186.988204 
L 275.64883 188.631878 
L 275.930887 194.566407 
L 276.212953 191.175247 
L 276.918112 187.651441 
L 277.059141 187.54763 
L 277.200171 186.82672 
L 277.341198 186.844022 
L 277.482236 186.613331 
L 277.905328 184.894682 
L 278.328423 182.062948 
L 278.469453 181.999508 
L 278.751515 180.240489 
L 279.033578 183.05492 
L 279.315641 187.52456 
L 279.5977 189.300882 
L 280.020797 198.390112 
L 280.443891 201.141103 
L 280.866981 202.075402 
L 281.149044 201.596718 
L 281.290077 201.896617 
L 281.431107 201.665925 
L 281.713167 196.204313 
L 281.854242 198.280533 
L 282.277345 193.764755 
L 282.559406 192.33447 
L 282.700436 192.392143 
L 283.123531 192.247961 
L 283.264557 192.501721 
L 283.54662 192.253728 
L 283.687649 192.784318 
L 284.392811 188.8395 
L 284.956934 182.034112 
L 285.380028 187.634139 
L 285.662089 188.049383 
L 285.803117 188.141659 
L 285.94415 187.86483 
L 286.085181 189.075958 
L 286.226218 188.551136 
L 286.367239 188.493463 
L 286.649308 187.934037 
L 286.649308 187.934037 
" clip-path="url(#p1d23c5f807)" style="fill: none; stroke: #0000ff; stroke-width: 1.5; stroke-linecap: square"/>
   </g>
   <g id="line2d_18">
    <path d="M 294.547055 180.263558 
L 294.688085 180.459645 
L 294.829113 180.667267 
L 294.970146 181.145951 
L 295.111175 182.351312 
L 295.252211 183.233706 
L 295.39324 182.749254 
L 295.534266 182.893436 
L 295.675298 182.80116 
L 295.816334 184.450601 
L 295.957364 185.823213 
L 296.098402 186.480683 
L 296.239424 186.936298 
L 296.380461 186.607563 
L 296.52149 187.530328 
L 296.662519 188.228168 
L 296.803547 187.870597 
L 296.944584 187.357309 
L 297.085612 187.818692 
L 297.226644 188.90294 
L 297.367678 190.419734 
L 297.508708 191.025298 
L 297.649735 191.82695 
L 297.790771 191.705837 
L 297.931802 192.288332 
L 298.072829 192.057641 
L 298.213862 192.472885 
L 298.354912 192.374841 
L 298.495931 191.509749 
L 298.636956 191.873088 
L 298.777987 191.896157 
L 298.919018 192.092244 
L 299.060047 191.636629 
L 299.20113 191.919226 
L 299.342163 191.636629 
L 299.483193 191.873088 
L 299.624223 192.08071 
L 299.765253 191.619328 
L 299.906282 191.751975 
L 300.047314 191.3598 
L 300.188347 191.55012 
L 300.329372 191.878855 
L 300.470409 192.27103 
L 300.611442 192.167219 
L 300.752469 192.282565 
L 300.893503 191.965364 
L 301.034531 191.757742 
L 301.175568 191.388637 
L 301.31659 191.602026 
L 301.457629 191.411706 
L 301.598653 192.14415 
L 301.739691 192.028804 
L 301.880715 191.74044 
L 302.021753 191.221385 
L 302.162784 189.185536 
L 302.303815 188.112823 
L 302.444847 188.124357 
L 302.867936 189.739195 
L 303.008968 189.796868 
L 303.150001 189.669988 
L 303.291028 189.952584 
L 303.432062 189.312417 
L 303.573096 188.71262 
L 303.714121 188.037848 
L 303.855151 187.305404 
L 303.999064 187.726415 
L 304.137222 187.328473 
L 304.278248 186.89016 
L 304.419274 186.711374 
L 304.560316 187.755252 
L 304.701346 187.622604 
L 304.84237 185.811679 
L 304.98341 184.900449 
" clip-path="url(#p1d23c5f807)" style="fill: none; stroke: #6a5acd; stroke-width: 1.5; stroke-linecap: square"/>
   </g>
   <g id="patch_3">
    <path d="M 57.6 307.584 
L 57.6 41.472 
" style="fill: none; stroke: #000000; stroke-width: 0.8; stroke-linejoin: miter; stroke-linecap: square"/>
   </g>
   <g id="patch_4">
    <path d="M 414.72 307.584 
L 414.72 41.472 
" style="fill: none; stroke: #000000; stroke-width: 0.8; stroke-linejoin: miter; stroke-linecap: square"/>
   </g>
   <g id="patch_5">
    <path d="M 57.6 307.584 
L 414.72 307.584 
" style="fill: none; stroke: #000000; stroke-width: 0.8; stroke-linejoin: miter; stroke-linecap: square"/>
   </g>
   <g id="patch_6">
    <path d="M 57.6 41.472 
L 414.72 41.472 
" style="fill: none; stroke: #000000; stroke-width: 0.8; stroke-linejoin: miter; stroke-linecap: square"/>
   </g>
   <g id="text_16">
    <!-- Sensor Data Plot -->
    <g transform="translate(186.145312 35.472) scale(0.12 -0.12)">
     <defs>
      <path id="DejaVuSans-50" d="M 1259 4147 
L 1259 2394 
L 2053 2394 
Q 2494 2394 2734 2622 
Q 2975 2850 2975 3272 
Q 2975 3691 2734 3919 
Q 2494 4147 2053 4147 
L 1259 4147 
z
M 628 4666 
L 2053 4666 
Q 2838 4666 3239 4311 
Q 3641 3956 3641 3272 
Q 3641 2581 3239 2228 
Q 2838 1875 2053 1875 
L 1259 1875 
L 1259 0 
L 628 0 
L 628 4666 
z
" transform="scale(0.015625)"/>
      <path id="DejaVuSans-6c" d="M 603 4863 
L 1178 4863 
L 1178 0 
L 603 0 
L 603 4863 
z
" transform="scale(0.015625)"/>
     </defs>
     <use xlink:href="#DejaVuSans-53"/>
     <use xlink:href="#DejaVuSans-65" x="63.476562"/>
     <use xlink:href="#DejaVuSans-6e" x="125"/>
     <use xlink:href="#DejaVuSans-73" x="188.378906"/>
     <use xlink:href="#DejaVuSans-6f" x="240.478516"/>
     <use xlink:href="#DejaVuSans-72" x="301.660156"/>
     <use xlink:href="#DejaVuSans-20" x="342.773438"/>
     <use xlink:href="#DejaVuSans-44" x="374.560547"/>
     <use xlink:href="#DejaVuSans-61" x="451.5625"/>
     <use xlink:href="#DejaVuSans-74" x="512.841797"/>
     <use xlink:href="#DejaVuSans-61" x="552.050781"/>
     <use xlink:href="#DejaVuSans-20" x="613.330078"/>
     <use xlink:href="#DejaVuSans-50" x="645.117188"/>
     <use xlink:href="#DejaVuSans-6c" x="705.419922"/>
     <use xlink:href="#DejaVuSans-6f" x="733.203125"/>
     <use xlink:href="#DejaVuSans-74" x="794.384766"/>
    </g>
   </g>
   <g id="legend_1">
    <g id="patch_7">
     <path d="M 64.6 122.862625 
L 175.017188 122.862625 
Q 177.017188 122.862625 177.017188 120.862625 
L 177.017188 48.472 
Q 177.017188 46.472 175.017188 46.472 
L 64.6 46.472 
Q 62.6 46.472 62.6 48.472 
L 62.6 120.862625 
Q 62.6 122.862625 64.6 122.862625 
z
" style="fill: #ffffff; opacity: 0.8; stroke: #cccccc; stroke-linejoin: miter"/>
    </g>
    <g id="line2d_19">
     <path d="M 66.6 54.570438 
L 76.6 54.570438 
L 86.6 54.570438 
" style="fill: none; stroke: #808080; stroke-width: 1.5; stroke-linecap: square"/>
    </g>
    <g id="text_17">
     <!-- All Data -->
     <g transform="translate(94.6 58.070438) scale(0.1 -0.1)">
      <defs>
       <path id="DejaVuSans-41" d="M 2188 4044 
L 1331 1722 
L 3047 1722 
L 2188 4044 
z
M 1831 4666 
L 2547 4666 
L 4325 0 
L 3669 0 
L 3244 1197 
L 1141 1197 
L 716 0 
L 50 0 
L 1831 4666 
z
" transform="scale(0.015625)"/>
      </defs>
      <use xlink:href="#DejaVuSans-41"/>
      <use xlink:href="#DejaVuSans-6c" x="68.408203"/>
      <use xlink:href="#DejaVuSans-6c" x="96.191406"/>
      <use xlink:href="#DejaVuSans-20" x="123.974609"/>
      <use xlink:href="#DejaVuSans-44" x="155.761719"/>
      <use xlink:href="#DejaVuSans-61" x="232.763672"/>
      <use xlink:href="#DejaVuSans-74" x="294.042969"/>
      <use xlink:href="#DejaVuSans-61" x="333.251953"/>
     </g>
    </g>
    <g id="line2d_20">
     <path d="M 66.6 69.248563 
L 76.6 69.248563 
L 86.6 69.248563 
" style="fill: none; stroke: #808080; stroke-width: 1.5; stroke-linecap: square"/>
    </g>
    <g id="text_18">
     <!-- Outside -->
     <g transform="translate(94.6 72.748563) scale(0.1 -0.1)">
      <defs>
       <path id="DejaVuSans-4f" d="M 2522 4238 
Q 1834 4238 1429 3725 
Q 1025 3213 1025 2328 
Q 1025 1447 1429 934 
Q 1834 422 2522 422 
Q 3209 422 3611 934 
Q 4013 1447 4013 2328 
Q 4013 3213 3611 3725 
Q 3209 4238 2522 4238 
z
M 2522 4750 
Q 3503 4750 4090 4092 
Q 4678 3434 4678 2328 
Q 4678 1225 4090 567 
Q 3503 -91 2522 -91 
Q 1538 -91 948 565 
Q 359 1222 359 2328 
Q 359 3434 948 4092 
Q 1538 4750 2522 4750 
z
" transform="scale(0.015625)"/>
       <path id="DejaVuSans-75" d="M 544 1381 
L 544 3500 
L 1119 3500 
L 1119 1403 
Q 1119 906 1312 657 
Q 1506 409 1894 409 
Q 2359 409 2629 706 
Q 2900 1003 2900 1516 
L 2900 3500 
L 3475 3500 
L 3475 0 
L 2900 0 
L 2900 538 
Q 2691 219 2414 64 
Q 2138 -91 1772 -91 
Q 1169 -91 856 284 
Q 544 659 544 1381 
z
M 1991 3584 
L 1991 3584 
z
" transform="scale(0.015625)"/>
       <path id="DejaVuSans-64" d="M 2906 2969 
L 2906 4863 
L 3481 4863 
L 3481 0 
L 2906 0 
L 2906 525 
Q 2725 213 2448 61 
Q 2172 -91 1784 -91 
Q 1150 -91 751 415 
Q 353 922 353 1747 
Q 353 2572 751 3078 
Q 1150 3584 1784 3584 
Q 2172 3584 2448 3432 
Q 2725 3281 2906 2969 
z
M 947 1747 
Q 947 1113 1208 752 
Q 1469 391 1925 391 
Q 2381 391 2643 752 
Q 2906 1113 2906 1747 
Q 2906 2381 2643 2742 
Q 2381 3103 1925 3103 
Q 1469 3103 1208 2742 
Q 947 2381 947 1747 
z
" transform="scale(0.015625)"/>
      </defs>
      <use xlink:href="#DejaVuSans-4f"/>
      <use xlink:href="#DejaVuSans-75" x="78.710938"/>
      <use xlink:href="#DejaVuSans-74" x="142.089844"/>
      <use xlink:href="#DejaVuSans-73" x="181.298828"/>
      <use xlink:href="#DejaVuSans-69" x="233.398438"/>
      <use xlink:href="#DejaVuSans-64" x="261.181641"/>
      <use xlink:href="#DejaVuSans-65" x="324.658203"/>
     </g>
    </g>
    <g id="line2d_21">
     <path d="M 66.6 83.926688 
L 76.6 83.926688 
L 86.6 83.926688 
" style="fill: none; stroke: #ff0000; stroke-width: 1.5; stroke-linecap: square"/>
    </g>
    <g id="text_19">
     <!-- Inside Bus Data -->
     <g transform="translate(94.6 87.426688) scale(0.1 -0.1)">
      <defs>
       <path id="DejaVuSans-49" d="M 628 4666 
L 1259 4666 
L 1259 0 
L 628 0 
L 628 4666 
z
" transform="scale(0.015625)"/>
       <path id="DejaVuSans-42" d="M 1259 2228 
L 1259 519 
L 2272 519 
Q 2781 519 3026 730 
Q 3272 941 3272 1375 
Q 3272 1813 3026 2020 
Q 2781 2228 2272 2228 
L 1259 2228 
z
M 1259 4147 
L 1259 2741 
L 2194 2741 
Q 2656 2741 2882 2914 
Q 3109 3088 3109 3444 
Q 3109 3797 2882 3972 
Q 2656 4147 2194 4147 
L 1259 4147 
z
M 628 4666 
L 2241 4666 
Q 2963 4666 3353 4366 
Q 3744 4066 3744 3513 
Q 3744 3084 3544 2831 
Q 3344 2578 2956 2516 
Q 3422 2416 3680 2098 
Q 3938 1781 3938 1306 
Q 3938 681 3513 340 
Q 3088 0 2303 0 
L 628 0 
L 628 4666 
z
" transform="scale(0.015625)"/>
      </defs>
      <use xlink:href="#DejaVuSans-49"/>
      <use xlink:href="#DejaVuSans-6e" x="29.492188"/>
      <use xlink:href="#DejaVuSans-73" x="92.871094"/>
      <use xlink:href="#DejaVuSans-69" x="144.970703"/>
      <use xlink:href="#DejaVuSans-64" x="172.753906"/>
      <use xlink:href="#DejaVuSans-65" x="236.230469"/>
      <use xlink:href="#DejaVuSans-20" x="297.753906"/>
      <use xlink:href="#DejaVuSans-42" x="329.541016"/>
      <use xlink:href="#DejaVuSans-75" x="398.144531"/>
      <use xlink:href="#DejaVuSans-73" x="461.523438"/>
      <use xlink:href="#DejaVuSans-20" x="513.623047"/>
      <use xlink:href="#DejaVuSans-44" x="545.410156"/>
      <use xlink:href="#DejaVuSans-61" x="622.412109"/>
      <use xlink:href="#DejaVuSans-74" x="683.691406"/>
      <use xlink:href="#DejaVuSans-61" x="722.900391"/>
     </g>
    </g>
    <g id="line2d_22">
     <path d="M 66.6 98.604813 
L 76.6 98.604813 
L 86.6 98.604813 
" style="fill: none; stroke: #0000ff; stroke-width: 1.5; stroke-linecap: square"/>
    </g>
    <g id="text_20">
     <!-- piccadilly -->
     <g transform="translate(94.6 102.104813) scale(0.1 -0.1)">
      <defs>
       <path id="DejaVuSans-70" d="M 1159 525 
L 1159 -1331 
L 581 -1331 
L 581 3500 
L 1159 3500 
L 1159 2969 
Q 1341 3281 1617 3432 
Q 1894 3584 2278 3584 
Q 2916 3584 3314 3078 
Q 3713 2572 3713 1747 
Q 3713 922 3314 415 
Q 2916 -91 2278 -91 
Q 1894 -91 1617 61 
Q 1341 213 1159 525 
z
M 3116 1747 
Q 3116 2381 2855 2742 
Q 2594 3103 2138 3103 
Q 1681 3103 1420 2742 
Q 1159 2381 1159 1747 
Q 1159 1113 1420 752 
Q 1681 391 2138 391 
Q 2594 391 2855 752 
Q 3116 1113 3116 1747 
z
" transform="scale(0.015625)"/>
       <path id="DejaVuSans-63" d="M 3122 3366 
L 3122 2828 
Q 2878 2963 2633 3030 
Q 2388 3097 2138 3097 
Q 1578 3097 1268 2742 
Q 959 2388 959 1747 
Q 959 1106 1268 751 
Q 1578 397 2138 397 
Q 2388 397 2633 464 
Q 2878 531 3122 666 
L 3122 134 
Q 2881 22 2623 -34 
Q 2366 -91 2075 -91 
Q 1284 -91 818 406 
Q 353 903 353 1747 
Q 353 2603 823 3093 
Q 1294 3584 2113 3584 
Q 2378 3584 2631 3529 
Q 2884 3475 3122 3366 
z
" transform="scale(0.015625)"/>
       <path id="DejaVuSans-79" d="M 2059 -325 
Q 1816 -950 1584 -1140 
Q 1353 -1331 966 -1331 
L 506 -1331 
L 506 -850 
L 844 -850 
Q 1081 -850 1212 -737 
Q 1344 -625 1503 -206 
L 1606 56 
L 191 3500 
L 800 3500 
L 1894 763 
L 2988 3500 
L 3597 3500 
L 2059 -325 
z
" transform="scale(0.015625)"/>
      </defs>
      <use xlink:href="#DejaVuSans-70"/>
      <use xlink:href="#DejaVuSans-69" x="63.476562"/>
      <use xlink:href="#DejaVuSans-63" x="91.259766"/>
      <use xlink:href="#DejaVuSans-63" x="146.240234"/>
      <use xlink:href="#DejaVuSans-61" x="201.220703"/>
      <use xlink:href="#DejaVuSans-64" x="262.5"/>
      <use xlink:href="#DejaVuSans-69" x="325.976562"/>
      <use xlink:href="#DejaVuSans-6c" x="353.759766"/>
      <use xlink:href="#DejaVuSans-6c" x="381.542969"/>
      <use xlink:href="#DejaVuSans-79" x="409.326172"/>
     </g>
    </g>
    <g id="line2d_23">
     <path d="M 66.6 113.282938 
L 76.6 113.282938 
L 86.6 113.282938 
" style="fill: none; stroke: #6a5acd; stroke-width: 1.5; stroke-linecap: square"/>
    </g>
    <g id="text_21">
     <!-- victoria -->
     <g transform="translate(94.6 116.782938) scale(0.1 -0.1)">
      <defs>
       <path id="DejaVuSans-76" d="M 191 3500 
L 800 3500 
L 1894 563 
L 2988 3500 
L 3597 3500 
L 2284 0 
L 1503 0 
L 191 3500 
z
" transform="scale(0.015625)"/>
      </defs>
      <use xlink:href="#DejaVuSans-76"/>
      <use xlink:href="#DejaVuSans-69" x="59.179688"/>
      <use xlink:href="#DejaVuSans-63" x="86.962891"/>
      <use xlink:href="#DejaVuSans-74" x="141.943359"/>
      <use xlink:href="#DejaVuSans-6f" x="181.152344"/>
      <use xlink:href="#DejaVuSans-72" x="242.333984"/>
      <use xlink:href="#DejaVuSans-69" x="283.447266"/>
      <use xlink:href="#DejaVuSans-61" x="311.230469"/>
     </g>
    </g>
   </g>
  </g>
 </g>
 <defs>
  <clipPath id="p1d23c5f807">
   <rect x="57.6" y="41.472" width="357.12" height="266.112"/>
  </clipPath>
 </defs>
</svg>
